<mxfile host="app.diagrams.net" agent="Mozilla/5.0 (X11; Linux x86_64) AppleWebKit/537.36 (KHTML, like Gecko) Chrome/140.0.0.0 Safari/537.36" version="28.2.1">
  <diagram id="cSxR6st3fB4y6lpm7Hjq" name="Page-1">
    <mxGraphModel dx="1600" dy="2333" grid="1" gridSize="10" guides="1" tooltips="1" connect="1" arrows="1" fold="1" page="1" pageScale="1" pageWidth="850" pageHeight="1400" math="0" shadow="0">
      <root>
        <mxCell id="0" />
        <mxCell id="1" parent="0" />
        <mxCell id="ixZkb0eXv8Ct4fg5er1q-86" value="" style="rounded=0;whiteSpace=wrap;html=1;strokeColor=none;" vertex="1" parent="1">
          <mxGeometry y="-280" width="850" height="3180" as="geometry" />
        </mxCell>
        <mxCell id="ixZkb0eXv8Ct4fg5er1q-84" value="" style="rounded=1;whiteSpace=wrap;html=1;fillColor=none;" vertex="1" parent="1">
          <mxGeometry x="51.66" y="2660" width="745" height="200" as="geometry" />
        </mxCell>
        <mxCell id="ixZkb0eXv8Ct4fg5er1q-81" value="" style="rounded=1;whiteSpace=wrap;html=1;fillColor=none;" vertex="1" parent="1">
          <mxGeometry x="56.84" y="2100" width="745" height="310" as="geometry" />
        </mxCell>
        <mxCell id="ixZkb0eXv8Ct4fg5er1q-52" value="" style="rounded=1;whiteSpace=wrap;html=1;fillColor=none;" vertex="1" parent="1">
          <mxGeometry x="64.5" y="1930" width="745" height="160" as="geometry" />
        </mxCell>
        <mxCell id="ixZkb0eXv8Ct4fg5er1q-51" value="" style="rounded=1;whiteSpace=wrap;html=1;fillColor=none;" vertex="1" parent="1">
          <mxGeometry x="70" y="1610" width="745" height="300" as="geometry" />
        </mxCell>
        <mxCell id="ixZkb0eXv8Ct4fg5er1q-22" value="" style="rounded=1;whiteSpace=wrap;html=1;fillColor=none;" vertex="1" parent="1">
          <mxGeometry x="64.5" y="1110" width="745" height="120" as="geometry" />
        </mxCell>
        <mxCell id="ixZkb0eXv8Ct4fg5er1q-23" value="" style="rounded=1;whiteSpace=wrap;html=1;fillColor=none;" vertex="1" parent="1">
          <mxGeometry x="70" y="1240" width="740" height="345" as="geometry" />
        </mxCell>
        <mxCell id="ixZkb0eXv8Ct4fg5er1q-11" value="" style="rounded=1;whiteSpace=wrap;html=1;fillColor=none;" vertex="1" parent="1">
          <mxGeometry x="55" y="710" width="745" height="250" as="geometry" />
        </mxCell>
        <mxCell id="ixZkb0eXv8Ct4fg5er1q-3" value="" style="rounded=1;whiteSpace=wrap;html=1;fillColor=none;" vertex="1" parent="1">
          <mxGeometry x="55" y="210" width="745" height="380" as="geometry" />
        </mxCell>
        <mxCell id="ixZkb0eXv8Ct4fg5er1q-1" value="" style="rounded=1;whiteSpace=wrap;html=1;fillColor=none;" vertex="1" parent="1">
          <mxGeometry x="55" y="-20" width="745" height="220" as="geometry" />
        </mxCell>
        <mxCell id="mQlGj0gx3QQivbZpuOw8-4" style="edgeStyle=orthogonalEdgeStyle;rounded=0;orthogonalLoop=1;jettySize=auto;html=1;exitX=0.5;exitY=1;exitDx=0;exitDy=0;entryX=0.5;entryY=0;entryDx=0;entryDy=0;" parent="1" source="mQlGj0gx3QQivbZpuOw8-2" target="mQlGj0gx3QQivbZpuOw8-3" edge="1">
          <mxGeometry relative="1" as="geometry" />
        </mxCell>
        <mxCell id="mQlGj0gx3QQivbZpuOw8-6" style="edgeStyle=orthogonalEdgeStyle;rounded=0;orthogonalLoop=1;jettySize=auto;html=1;exitX=0.5;exitY=1;exitDx=0;exitDy=0;entryX=0.5;entryY=0;entryDx=0;entryDy=0;" parent="1" source="mQlGj0gx3QQivbZpuOw8-2" target="mQlGj0gx3QQivbZpuOw8-5" edge="1">
          <mxGeometry relative="1" as="geometry" />
        </mxCell>
        <mxCell id="mQlGj0gx3QQivbZpuOw8-2" value="AerSimulator()" style="rounded=1;whiteSpace=wrap;html=1;" parent="1" vertex="1">
          <mxGeometry x="377" y="10" width="120" height="60" as="geometry" />
        </mxCell>
        <mxCell id="mQlGj0gx3QQivbZpuOw8-3" value="&lt;div&gt;On __init__()&lt;/div&gt;&lt;div&gt;&lt;br&gt;&lt;/div&gt;self._controller = aer_controller_execute() &amp;lt;- class Instance" style="rounded=1;whiteSpace=wrap;html=1;" parent="1" vertex="1">
          <mxGeometry x="110" y="110" width="340" height="60" as="geometry" />
        </mxCell>
        <mxCell id="mQlGj0gx3QQivbZpuOw8-9" style="edgeStyle=orthogonalEdgeStyle;rounded=0;orthogonalLoop=1;jettySize=auto;html=1;exitX=0.5;exitY=1;exitDx=0;exitDy=0;entryX=0.5;entryY=0;entryDx=0;entryDy=0;" parent="1" source="mQlGj0gx3QQivbZpuOw8-5" target="mQlGj0gx3QQivbZpuOw8-8" edge="1">
          <mxGeometry relative="1" as="geometry" />
        </mxCell>
        <mxCell id="mQlGj0gx3QQivbZpuOw8-5" value="&lt;div&gt;run()&lt;/div&gt;" style="rounded=1;whiteSpace=wrap;html=1;" parent="1" vertex="1">
          <mxGeometry x="480" y="110" width="70" height="60" as="geometry" />
        </mxCell>
        <mxCell id="mQlGj0gx3QQivbZpuOw8-11" style="edgeStyle=orthogonalEdgeStyle;rounded=0;orthogonalLoop=1;jettySize=auto;html=1;exitX=0.5;exitY=1;exitDx=0;exitDy=0;entryX=0.5;entryY=0;entryDx=0;entryDy=0;" parent="1" source="mQlGj0gx3QQivbZpuOw8-8" target="mQlGj0gx3QQivbZpuOw8-10" edge="1">
          <mxGeometry relative="1" as="geometry" />
        </mxCell>
        <mxCell id="mQlGj0gx3QQivbZpuOw8-8" value="&lt;div&gt;_run_circuits()&lt;/div&gt;" style="rounded=1;whiteSpace=wrap;html=1;" parent="1" vertex="1">
          <mxGeometry x="460" y="250" width="110" height="60" as="geometry" />
        </mxCell>
        <mxCell id="mQlGj0gx3QQivbZpuOw8-14" style="edgeStyle=orthogonalEdgeStyle;rounded=0;orthogonalLoop=1;jettySize=auto;html=1;exitX=0.5;exitY=1;exitDx=0;exitDy=0;entryX=0.5;entryY=0;entryDx=0;entryDy=0;" parent="1" source="mQlGj0gx3QQivbZpuOw8-10" target="mQlGj0gx3QQivbZpuOw8-13" edge="1">
          <mxGeometry relative="1" as="geometry" />
        </mxCell>
        <mxCell id="mQlGj0gx3QQivbZpuOw8-10" value="&lt;div&gt;AerJob().submit()&lt;/div&gt;" style="rounded=1;whiteSpace=wrap;html=1;" parent="1" vertex="1">
          <mxGeometry x="460" y="340" width="110" height="60" as="geometry" />
        </mxCell>
        <mxCell id="mQlGj0gx3QQivbZpuOw8-18" value="" style="edgeStyle=orthogonalEdgeStyle;rounded=0;orthogonalLoop=1;jettySize=auto;html=1;" parent="1" source="mQlGj0gx3QQivbZpuOw8-13" target="mQlGj0gx3QQivbZpuOw8-17" edge="1">
          <mxGeometry relative="1" as="geometry" />
        </mxCell>
        <mxCell id="mQlGj0gx3QQivbZpuOw8-13" value="_executor.submit()" style="rounded=1;whiteSpace=wrap;html=1;" parent="1" vertex="1">
          <mxGeometry x="460" y="430" width="110" height="60" as="geometry" />
        </mxCell>
        <mxCell id="mQlGj0gx3QQivbZpuOw8-16" value="" style="edgeStyle=orthogonalEdgeStyle;rounded=0;orthogonalLoop=1;jettySize=auto;html=1;" parent="1" source="mQlGj0gx3QQivbZpuOw8-15" target="mQlGj0gx3QQivbZpuOw8-13" edge="1">
          <mxGeometry relative="1" as="geometry" />
        </mxCell>
        <mxCell id="mQlGj0gx3QQivbZpuOw8-15" value="ThreadPool with a single worker" style="rounded=1;whiteSpace=wrap;html=1;" parent="1" vertex="1">
          <mxGeometry x="620" y="430" width="160" height="60" as="geometry" />
        </mxCell>
        <mxCell id="mQlGj0gx3QQivbZpuOw8-21" value="" style="edgeStyle=orthogonalEdgeStyle;rounded=0;orthogonalLoop=1;jettySize=auto;html=1;" parent="1" source="mQlGj0gx3QQivbZpuOw8-17" target="mQlGj0gx3QQivbZpuOw8-19" edge="1">
          <mxGeometry relative="1" as="geometry" />
        </mxCell>
        <mxCell id="mQlGj0gx3QQivbZpuOw8-17" value="_execute_circuits_job()" style="rounded=1;whiteSpace=wrap;html=1;" parent="1" vertex="1">
          <mxGeometry x="445" y="520" width="140" height="60" as="geometry" />
        </mxCell>
        <mxCell id="mQlGj0gx3QQivbZpuOw8-28" style="edgeStyle=orthogonalEdgeStyle;rounded=0;orthogonalLoop=1;jettySize=auto;html=1;exitX=0.5;exitY=1;exitDx=0;exitDy=0;entryX=0.5;entryY=0;entryDx=0;entryDy=0;" parent="1" source="mQlGj0gx3QQivbZpuOw8-19" target="mQlGj0gx3QQivbZpuOw8-27" edge="1">
          <mxGeometry relative="1" as="geometry" />
        </mxCell>
        <mxCell id="mQlGj0gx3QQivbZpuOw8-19" value="_execute_circuits()" style="rounded=1;whiteSpace=wrap;html=1;" parent="1" vertex="1">
          <mxGeometry x="447.5" y="620" width="135" height="60" as="geometry" />
        </mxCell>
        <mxCell id="mQlGj0gx3QQivbZpuOw8-23" style="edgeStyle=orthogonalEdgeStyle;rounded=0;orthogonalLoop=1;jettySize=auto;html=1;exitX=1;exitY=0.5;exitDx=0;exitDy=0;entryX=0;entryY=0.5;entryDx=0;entryDy=0;" parent="1" source="mQlGj0gx3QQivbZpuOw8-22" target="mQlGj0gx3QQivbZpuOw8-8" edge="1">
          <mxGeometry relative="1" as="geometry" />
        </mxCell>
        <mxCell id="mQlGj0gx3QQivbZpuOw8-24" style="edgeStyle=orthogonalEdgeStyle;rounded=0;orthogonalLoop=1;jettySize=auto;html=1;exitX=1;exitY=0.5;exitDx=0;exitDy=0;" parent="1" source="mQlGj0gx3QQivbZpuOw8-22" target="mQlGj0gx3QQivbZpuOw8-10" edge="1">
          <mxGeometry relative="1" as="geometry" />
        </mxCell>
        <mxCell id="mQlGj0gx3QQivbZpuOw8-25" style="edgeStyle=orthogonalEdgeStyle;rounded=0;orthogonalLoop=1;jettySize=auto;html=1;exitX=1;exitY=0.5;exitDx=0;exitDy=0;entryX=0;entryY=0.5;entryDx=0;entryDy=0;" parent="1" source="mQlGj0gx3QQivbZpuOw8-22" target="mQlGj0gx3QQivbZpuOw8-13" edge="1">
          <mxGeometry relative="1" as="geometry" />
        </mxCell>
        <mxCell id="mQlGj0gx3QQivbZpuOw8-26" style="edgeStyle=orthogonalEdgeStyle;rounded=0;orthogonalLoop=1;jettySize=auto;html=1;exitX=1;exitY=0.5;exitDx=0;exitDy=0;entryX=0;entryY=0.5;entryDx=0;entryDy=0;" parent="1" source="mQlGj0gx3QQivbZpuOw8-22" target="mQlGj0gx3QQivbZpuOw8-17" edge="1">
          <mxGeometry relative="1" as="geometry">
            <Array as="points">
              <mxPoint x="360" y="430" />
              <mxPoint x="360" y="550" />
            </Array>
          </mxGeometry>
        </mxCell>
        <mxCell id="mQlGj0gx3QQivbZpuOw8-22" value="AerBackend&lt;div&gt;abstract class&lt;/div&gt;" style="rounded=1;whiteSpace=wrap;html=1;" parent="1" vertex="1">
          <mxGeometry x="140" y="400" width="120" height="60" as="geometry" />
        </mxCell>
        <mxCell id="ixZkb0eXv8Ct4fg5er1q-10" value="" style="edgeStyle=orthogonalEdgeStyle;rounded=0;orthogonalLoop=1;jettySize=auto;html=1;" edge="1" parent="1" source="mQlGj0gx3QQivbZpuOw8-27" target="mQlGj0gx3QQivbZpuOw8-29">
          <mxGeometry relative="1" as="geometry" />
        </mxCell>
        <mxCell id="mQlGj0gx3QQivbZpuOw8-27" value="cpp_execute_circuits()" style="rounded=1;whiteSpace=wrap;html=1;" parent="1" vertex="1">
          <mxGeometry x="447.5" y="740" width="135" height="60" as="geometry" />
        </mxCell>
        <mxCell id="ixZkb0eXv8Ct4fg5er1q-18" style="edgeStyle=orthogonalEdgeStyle;rounded=0;orthogonalLoop=1;jettySize=auto;html=1;exitX=0.5;exitY=1;exitDx=0;exitDy=0;entryX=0.5;entryY=0;entryDx=0;entryDy=0;" edge="1" parent="1" source="mQlGj0gx3QQivbZpuOw8-29" target="mQlGj0gx3QQivbZpuOw8-32">
          <mxGeometry relative="1" as="geometry" />
        </mxCell>
        <mxCell id="mQlGj0gx3QQivbZpuOw8-29" value="controller.execute()" style="rounded=1;whiteSpace=wrap;html=1;" parent="1" vertex="1">
          <mxGeometry x="435.17" y="830" width="158" height="60" as="geometry" />
        </mxCell>
        <mxCell id="mQlGj0gx3QQivbZpuOw8-35" style="edgeStyle=orthogonalEdgeStyle;rounded=0;orthogonalLoop=1;jettySize=auto;html=1;exitX=0.5;exitY=1;exitDx=0;exitDy=0;entryX=0.5;entryY=0;entryDx=0;entryDy=0;" parent="1" source="mQlGj0gx3QQivbZpuOw8-32" target="mQlGj0gx3QQivbZpuOw8-34" edge="1">
          <mxGeometry relative="1" as="geometry" />
        </mxCell>
        <mxCell id="mQlGj0gx3QQivbZpuOw8-32" value="ControllerExecutor&amp;lt;Controller&amp;gt;().execute()" style="rounded=1;whiteSpace=wrap;html=1;" parent="1" vertex="1">
          <mxGeometry x="392" y="1000" width="246" height="60" as="geometry" />
        </mxCell>
        <mxCell id="Wq5V5O-XcryUxgMb054s-2" style="edgeStyle=orthogonalEdgeStyle;rounded=0;orthogonalLoop=1;jettySize=auto;html=1;exitX=0.5;exitY=1;exitDx=0;exitDy=0;entryX=0.5;entryY=0;entryDx=0;entryDy=0;" parent="1" source="mQlGj0gx3QQivbZpuOw8-34" target="Wq5V5O-XcryUxgMb054s-1" edge="1">
          <mxGeometry relative="1" as="geometry" />
        </mxCell>
        <mxCell id="mQlGj0gx3QQivbZpuOw8-34" value="controller_execute&amp;lt;Controller&amp;gt;()" style="rounded=1;whiteSpace=wrap;html=1;" parent="1" vertex="1">
          <mxGeometry x="420.83000000000004" y="1130" width="186.67" height="60" as="geometry" />
        </mxCell>
        <mxCell id="mQlGj0gx3QQivbZpuOw8-37" style="edgeStyle=orthogonalEdgeStyle;rounded=0;orthogonalLoop=1;jettySize=auto;html=1;entryX=1;entryY=0.5;entryDx=0;entryDy=0;" parent="1" source="mQlGj0gx3QQivbZpuOw8-36" target="mQlGj0gx3QQivbZpuOw8-34" edge="1">
          <mxGeometry relative="1" as="geometry" />
        </mxCell>
        <mxCell id="mQlGj0gx3QQivbZpuOw8-36" value="Setup seeds and other configurations/options" style="rounded=1;whiteSpace=wrap;html=1;" parent="1" vertex="1">
          <mxGeometry x="650" y="1125" width="130" height="70" as="geometry" />
        </mxCell>
        <mxCell id="ixZkb0eXv8Ct4fg5er1q-35" style="edgeStyle=orthogonalEdgeStyle;rounded=0;orthogonalLoop=1;jettySize=auto;html=1;exitX=0;exitY=0.5;exitDx=0;exitDy=0;" edge="1" parent="1" source="Wq5V5O-XcryUxgMb054s-1" target="ixZkb0eXv8Ct4fg5er1q-25">
          <mxGeometry relative="1" as="geometry" />
        </mxCell>
        <mxCell id="Wq5V5O-XcryUxgMb054s-1" value="Controller().execute()" style="rounded=1;whiteSpace=wrap;html=1;" parent="1" vertex="1">
          <mxGeometry x="451.66" y="1275" width="125" height="60" as="geometry" />
        </mxCell>
        <mxCell id="Wq5V5O-XcryUxgMb054s-22" value="" style="shape=image;verticalLabelPosition=bottom;labelBackgroundColor=default;verticalAlign=top;aspect=fixed;imageAspect=0;image=data:image/png,iVBORw0KGgoAAAANSUhEUgAAANYAAADrCAIAAACaZf8KAAAQAElEQVR4Aey8B4BtWVXnvXY44YbKL3amm9BAIyCIoIIEBXFwTMyIOog6ghEVhRl0wIBKHPVTx4SCSA4SJAmIIEFEkmRoOseXK95wwg7f/9xVtfv0rXOrq/q9113vdR9+te5/rb3PPvvsve4+4b5G+jNkG5Yusz73PhthHfptvSsGpR8UNstLawq43mXerPl8uRJV3dJ5W3g/9L7v/Zr3V2b+a2v+s0eG/3rF4js/c8PrPvyNv3n3F//i7Z/7uVd/+el/94WffPlnfuz/feKH//DD3/ei93/PC979+N9552N/5x+/6wXv+p4X/tP3veyDP/wnH/3Rv/zkU//mM097xef+72s++idv+reXv/Mzr//QV9/1mes//PXjn7x+7bOHBmvW9azJTOnLzJcDX6xV5CvegDVve1XHXOm9dd6XxvnshM9Wja96uOL8WuG9tx5ngc+7BpLOkC3RQhOZwSD2PiEnhfPOkVAtOWzpMolIqsiKKBfJMnWPupkTIrmuTD53hN7zpSN/94EvvPi1H/rff/rWZ774dT/9+6/+uZe+7tl/8Y+/97oP/9l7Pv/qj1/11s8fftdXFq++9tprr7/+pkOHjp04sdrrDfPcOByAlFJCCGvtcDhcWVk5evTozTfffOONN77/8tV3fuHYG/792r9+/xdf8saP/ObL3/Urf/Tmn3/xax/7S3/6ff/rb5/6krf92t9/4o8/cPWbvjD48A3xpxanV9T0muoOZGcoktzpsrRUZtrn5BXFsSKXr/ZaRK2IiCSJ6gPqroA8U06y1xsoYdupEK5PZY9KpIjsG0mmqE5B6IzosKHP3OT+8bNHX/Why3/iD976Cy95+//5m3f/6Ts/9eZP3fCRa4ZfWmlfZebFzAV+6hzbPlCke4fRbE9OrVJnxXeQZ3K0IedAtLEhjvZ5PUJOIhfNaOvp7iCezpL5or3HTh2kmfPk/Hlq4cLo3Idks5feUM5/7NrsNR+78oVv+vAz/99bfvpFr3nCM//yF//4n1754ev+82a/aMlEEUUp6bgQcTEsyJczUwjllA+M9YNS4KB3Ec6YFOx220SevMVSSEJQlFgtjabVeObypfjNn7jyD171wef+4T+8+BVve/0H/uNDX7guj+byeKZM5mwy71rz1J6XnTnZWeja/pQbdF2vY1dB26y0zVLbLuk4UpGWWpEUjrxxtrSmMKVzDvknhJBSaq2TJElHW9ue6Lhl0HUrU351yq9N+wFI8uW0WGu74ZQyswnNd+O9M+ne+XZr/8VXHx++6u3//Cu/88dP/z9//uK/e9+HL188RtIkLdmeIotTM2QLhW4o4dXdKbj7voDG4LIrSSbexl5PDUh+9VD5hg985Udf8oFnvfwDf/eRKz9z2C/JedfZK+KOJSHNQNlc22Hkhokbtilri7JLuS0GNs98mStfRtK2Yt9JZCehLMuKoijLEmucc1XaYQzEaINAFjrnUFSMtjzPO7FraZcqq30pTOaLgRn2y0Gvbfst20/NILV9HBfEVAA7XEkisbBv/9w5F63p+Q9+5cjzXv7OH3zOq9/4gc+fMFToNC8EqZhIYL2PJN11tjPmXKWWSwO37KLVuP2ZQ/b3XvnPL/yr1//7V65djvatxfv6yV6TzvikKxXWMa+8mU70VCw62reFQR7osiezJTFcNK2DZWtfnuzpq9lV6izZ9HipjxVKaiWU3AySbzPIj0OZOFKIo6Ve9OmK7Paj+WEyn7f29ETUF9Ga0GtOr5potYiXMw06yskyG6ytLveGa6UY6BnTOWCmz33DP338Gb/55+/73I152l7MoswqrPerx4/jEHcRzpgUzAoXt/WhjF74uv94zp++6UvHrFi46Kal4WxkOyKL7YCKoQPWSFwxo2Q1d6u56eW2XzjcXmXGZcbleNb00pPyJAWSTscq0lESx2kipcSSh1l3zllrsRwWow0uUhBxVOB7xJi3VqTjCqUjIbUX0pGwTmZegJKUU2g8jZJ2K+22W1Orw3LohIqTbrc70+10E6Vc7oeruB9dixZ++y/f9Ot/9Labc+m0WFle3jPfwRHvIpwxKZjE8h0f+PTzX/r3n7riaHLOfbNkz9LQt2f2dPs3tIeH2tnRuFhWdoj1z0sFqDVLrXnfnvfV6jjnkulKpNNdt9ap7gJxC7iclifSYinJj8fZMeu9IwIkcbmXuO9TUQSLvATIBu890hHZictxWZat7Hi7ONEpF8GUXZ62KzOuN+PX2lHW0nlbZqnrx+VanK/q4YruL9t0rlSdoRG9/nDQWxbZyhQN9yYmE6lNZmbOv++nrzj8nBf86fs/+oXZ2WkqhzjiXYTdl4L94+RpxVKBGXBDKlcgbib64T/6yJu/PChnLpqamkqKlZZZaymPbU2mWTxr2vtdsqekTmHxjDxUbiCs9fkQD5jaW4W7uLwwVqiomztReFlSBKxInWw52fGqK50H1fLocB0naAAX+QfQF1AXTu+xas7IaaOmCtHKRZwLPJVLZxJvY+ti4+NS4CWRLqTOlY5tlrg8JpdoPHKkTsQDI5eHPtIKOT0YZuncgRNi9vdf96HnvPJfr0rmiVYp71HmyNCSoxWifl6MBgUdOavYfSmYzvSHZaqoyEoSkqLOtcv2r9/ySRptyLnR5y1mptuOqCwHq/lgVbgikh5lhSmVzTtJ1Em0MEObrWmXqWKtXDmM0jpjDY65XDME66Kux6qxu00bo8OmKPCE5P3c3FynO/35r1z+h3/2rmNDRVGXsCQL0q7s9VfbSUxim62eSdV2XwrKKGlFmijVgkS0ZPSbPvjpj371EKYc8NDWxQ03Xpdl2XS3szA7G2tdGueFjNvdVqJwvVtbOi69m26nrUilVOKZoN5CaAdBaAAB6qKuUQRCBDrQGAylWwmTo6vtWJHJcX33Kj7RKz791atf/HfvPlpiBRztmvUOdNoCcvdNFzp1kuy6c+oZEoJwBfQOrzrk2/71C//8n9eIuQtoY+PJhgWIHbjgnq3phdz4fpY5IhmnuPz1c8J7E+vIygQX3MxpQxLXYdTHXoAFLIALIBjWsIAjsEEHwUF22XIEdke4IouERwrifPv9PvoZTy+kcwfe/+nrX/LK9w9jygoz1ekqa3F/QrtuunZ0rs2Vd905RREuwQYPBoPM3LRG7/nEV/T0Aa9b6D5mGrCABXCvP9Zb7BeYOaWqe0NnSiGEjqO1tTVc1Ob3HXDJdM/qQk/5ZGrgY+wFsCMsCII1u2xDhF1YMBZkly2XQu8IJyR++sOFOJICj9p4Psd3ZnVoFs67/z9+9DN/845P4/VjPigpx8tya8RO2j5D6u66FMQga/w8QZRMd1/3no8v2XR2z17XXwoTzAIWYJC72PDOI9VTssSjbjw4Qks32cUbFmK7eviaG6+9uiyyVrfrVZRZQTrGXgA7AhawDCIAmi0LaBB0EBxkly0itwOPl9J4GicRR1qRxxO3wCbxjEIHL77PK//xfe/77HWy3aa4M+j1bkf7u38Xudu6qAxFsSyzbDGnD3/uclyS8n6v69a4n5snu0OZWb65OPyN/br3pIdc/Kwfffxzf+IJv/zD3/m933LPB5w7NSuqN9J4/WaHPZv1cNXjdmC5KbZwmTF3LBhKIcDm0hDkou3YQiROpTKqvhvZcGBNgceO2dnZ/olFlbTT/ee98C9elQka9qg7PWPximA7jZ5RdXZdCkpvCE8UKnrn+/59/tyLrIzz/lqbBhjVMMF10Tty7QMvPvDMpz35+b/0/U95/GWPunT+O+698IQHnvvUJz709371yb/yU//9gvlO//hNU5E9ONeRpmqn3hR0oN4sBxEBQY8JdtmGauxu3zqhC0t4isL6h1UQl2PcFK6trhxYmF1cXFzOzcw5F//Vqz/amqqaFNJWH2fX365LQSFwS66PxdF7P3etU21pS6V0rufNcHU6cvghBBergWxl0bTxNFw89KxvW/jdH37wd927m2YD3OgpIjMcJkTC0qz1333QvPKXH/9937Q3Xz2yanwv6QpyQAoPW4cIj0G4CyBsuBLCAggAAcaF8/iqbMaNNuTT6PMW48k20nJrLZHjpKxQLkotCVPmEZWrQz09lV8szOJK+7c/+fUvZkS446UuenKWsetSkEZPff3hekLw6gLrVJoZl1tMutBCaF/Kovfohz/oEY94RBu3SkQRHmRGk6O1xqd0MC6aapvS/vh/f8KDL71k+dhNbdxuIUyEBkeftzIhWBd1zbVDhN3t27BjXdQ1N8URqdygN5QqSltJG1/I93+MZHVeXOdssnLXnYyUTorFJeMhXJVHWH4wK06n/QIX6arDiqws+udM6x947AP27t2LUzDGoBoEiEa5qAlvth1yLYrEfExPfsK3T0kTuRxNAVQDdVHXKAIhAh1oDIbSLUTYcbOo7xVKSZS+JCe19+VUFL3vQx8vqsGo1z1LdDWjp+BUTmETWOAEHTpyjHBh8kghL4TAdcrLCHMgVOKl0sLJfPVb73/xxTNUFAVeTeP4vPjhygddoUYzhpXDo3J56V56/CMeXKzgh66qEH882bAALhN0EIhDAxawgF2InRJ2DAItQAMWsACudYNueyazMi8GU0IfW8k/d92RrLoWo/ysYvelYPVamm46clxIjXzCZCgpYDHqCneFGhdhIRx+9i0e+633xZ0RMi9JElhUwB2YEAICOxKVzhgv9HA4SGXRJnriox4sCW8cq7TmBtmiPgQTdBCIQwMWsADuTsFeAHvBgiBYs8uWI8b1O0m3X/ooFh0vkukD7/i3z0iJe13UOqvYfSkotCU6fOQoVjtTXUjXV0HhSrw5w/QAZ8vpTrJviuxwTUopRJV2iAMhKm3xW0KZi7iVE6XtaZJeuXImpXP27kcdnkAWsIAjsEEHwUF22SJyuwktBIGmoAEL2HV8bkvcTOhOJ0msk+ns+z73pVhXZ7de4Wz52HUp6IlwBV1cXkFuYWKAENUqiJc1qRZFPiRrsMjtmZ/DgoArMk+EMfipv2ANi9tB7zCD1HOEhMYu5AplaXp6FqUAzcKOEYJ1UddcHxHAekc27FUXdc2tIQKUdtmgwE/GpSkERNS5uZ/1+iXXOZvsrktB5B/GdzAYeKoyD1p6V02JyyPh8mzgRhte3g6wxMUaFYDWGpdjpRR+6Uc6IiLStJdbKWmIa2+ek7NTHSpG91JoDRVAXdQ1ikCIQAcag6F0CxF23Czqe4VSpckWVki9tHTCZEMdd+LpuUOHDtUrnx1616WgItciOqYPWJkkwjqVJPmijao3syeWV3BVjVodlbSxTLbx9s85MjnmyrtqacR6GWmhlSePnIvSWOG6FSNL2y03qB5E8nIR04ZqsKAu6hpFgCOi+irg27COxMuiUcSNNmvt6PMWgx0bkbK6YUCbdQGtcbs6IiIJzRZClq1sCqeSLcRxORcPhivTPX8tfjJqbP1MDsrd33leGIz1WPmsKbBAdjqdm4+cwOpmSrJC8MTWewAAEABJREFUl3jZjOmT1U8Hw9xlBZFIyDm81OCX1bS2IqfncA27+lCVgtwgUfVcAgsQARBgs0AwMCoN3m2IeuW6DrvVg3WNCuyyhXsWs/tS0HsMN4YeQNyCwL0fssaSd0VRLPcGX7x6jVpTuPjqKBoO8TNeHz9YYOnTSTTADaCMU03SkMbLxCQhmf7b15bKZD40u1ncciwcZ9SNEOHKbEOwUaAOqBfBBSHCGhaMBeHWg3AZBBl2zzK7+1KwNsBh3CHwQ/7Kygp+Qu2m0YkTJ6JW9x0f+GifKBv2Bbl2qqa7cURGk0OqRpKKYa4EtaQnV1I6s+L0v37m67lMuXk0OCbgIghYwAK4DGtYECLQkwh1IOp12GXLcWgQNARcAMFM0lx6Fthdl4IYcU9U2Y11CBoD7Qn3daSk8M5g5RNx+wtXHf7wl5aSVsfhFYwtyBfkMtdfxpsaPLjEHbw0pKwovWrlInnfp676xBe+1p2aQWugahAfo0OMPiuDIIBiywIaBB0Ego2gAuAiFrABxKFhAQSAABCABSyAywQNcVay61KwPsr1OSiMm5qaEs7iirtnz54BUmtm3+ve9eErjg4HIvIa754VWStbiU5TV+BpmYzD5TdeI3rP54+86YOfGZSiG3luHy2PCbgIAhawDCIgaAi4AGJruA7bUJNdWMBBCBD0mIBbLw0a8bOGXZqC9bFm7YXMC4NFUI7e0eApRLdnb1rJXvCKd77nszcvE+Eia/UMSfyUEJW61R+WuCQvl/S6D17+l2/76Ak3dd5F91g9fA1mjhscE1sHQ+VQDZFJoA5AKVsIAA0gAnBB3WXNQViGg2ex3aUpiBHHBMAGdJQcP35cK4HH4WPHjiVpe2VQnnPRvY/76Ve848Mv+It3/fvXjgzwFpAIN4hGUtqOvvK161/w0r95xwf/faBnSt1eWlra001Cs5tFOBZEKIUGYy4ik2isWQ/WdWgkBIMIRSwmxbn0tNrT3fiuS0G8OcM5wwIIDD0Tmf78wt5Vmw583EkTXfY6slxbOoFS0Z776pJ60ds+++Q/eO8P/MF7f/gP3vtDf/Dex//uO5/95s9/zew3rfnUZ61ytaVU38TcLFoeE5Pe/6HmjhB4ABKObg2CyhGjvWDBlhsf6wwH6zZUqAfPDr3rUvA2hxU5d5t1tqgQdt8s6nuF0npwkq5XrutQvx6s680VGktRbVIcRWc6Z1gKhpkI4iQnYKwddtlu3TLqgHoduCBEWMOCsSDc2wyiDoOaAJotxFnGGZOCmADAo88Cdgu4ZqPlvVAEAQsgGNawIESgJxHqQNTrsMuW49AgaAi4DDSAhgUQdRAJIB70WSPOmBTkEcccAGi2EDsl7MgCFoRGgg4iFI0JVAAcZAEbQBwaFkAACAABWMAGQpBFiEMgEoB79nHGpCBPA08AdBDQjXCFRsv1UQQBy0CDoCHgAoit4TpsQ012YQEHIUDQQSAI4LJlAR1AJIBg0GeN2F0puJ1hDdMQxHb2CnXCXnURNKqxZgt3C1AHoAJbCAANIAJwQd1lfZtBrgaLmgz02ccZloKYCZ6DINi93XasnTF3i2Yba9aDdR3aCcEgQhHE9oOofNaw+1KwWBviN+K1Q7mQmU7b2hwu4tLkpRfAkGSsUExB1EgpRCPOC8YT3uBJEoqRVgDlJKO9YuxwxQvqG7zNk8r0bP+YJ9vzkcDet375h3eBVXAjNYSoftTe8NY/hVgPCrEu1gtGH0LcEuT3lOhc9S8IhdRCVkLKUcWzyuy+U3Kt1NOMT9tDH6+Wrb6Z9fGBeDqWNAEfywY02Wak002spx4nYM1OT3WqfxUhRFFa5G6apnEcY7kCmxOhHqzrUDMEgwhFEJuDiAAUncXsuhQctJKbBS12aKVt7Lyye5Ne193oVskVjQhnG/Gm3BHWm0ZWF4/3lk+0W2mr1UIeoJJzTlT/p8DwKjhFYEHlj/6CDgLhoIPgYN2dFEEcjNVE5Cxg16WgJdfLfSx6xfI1a4e/NDj6Vdu7gfIjN/Z1IzcNo0YO5Ukjh4u0kRuLpJGLztnjiozn3ksFYa1VwvPcw4VgCwGgAQRgAcsgAqBhAQSAABCABSyACyCYuubIWWN3XQpO3XzzZUK87uf+58d/7+c++fu/+MH/8/R/ef7PfvB5T/vy731HI1/5/Uc28vUXPbqRr734MY1c+bLHNfJjT/7+hel2f3VlaXXNk0jSdiRxy4aUqEAe4AMWQAAIAAFYwAZCsBKjKAQYSWIBC0IEGsBlC3GWsetSkGbaJMx0l7QjygbUX02cbQkqVbeRQkw3Uv0fkcvpzdaq6UYaG0HwonNTVw7JW0w8VkFLAqug3LgQc1rAAlQAEAAC1AU02BxEhNlRKe9ydthdl4Km0xpEcjWigXa24/20HKTiqCR0tBElqBFB1T+z3mwbG0EwImpkdbFYXV5qt5K01fYkcSMIhBDIGEC1DS4IgaCDQFHQQXCQXbaIBBAB7AbB7llj5W47E+0TXcoOUdsJVVhRUtvLOSI1EaeoAeltI8LbZpxtfKyZ6cZKIuVEWZZIgvUnYmfCuCEYdBAhGEQogqgH6xpFzFhwzOU6Z42dnIK+JG8qyGH088J4IjuiOvnqv9WopqGk6v99chWh7AiVi+Tw6NonnxMZa8u8LKhqB01NJjzq2pwA2ViXCnsJQ1GLdEK+iFGH8LpwhB8Q4/oECMdqQIjiFigXG5DAa8SN+j6jgHB4sbeZ3oCUKaK8vzDdlfHMUHT6aNg6KUeJKcSY0F6A6h3erQVGKICMbtT1oMQbIO/JIf0q8Gnw1UEE00DLjpYhLV5RYqAxSwXllO0IS2YEvkyuJJuRGVI58IWnVUt9YwwK1ufbUfX/tB46d6rF5BTEO1sSJFBBRlGUxFqgJ8YMhphCIin8cM2sHY9c0SYn+8Mi3Z9H85mc7svOskgWSS+raC2KjYgCpYhAQREIQSPjdVRiwEZ91GQKEYOcWuuIds7ITg5C/NaioNYtiHbBu0AgDssudpedbEQhIpCLCGQUBQaO9p1/UdLp9vv95ZXFYb+XaNFKNPKC52Kz4DjbUMou23qwrrkUtjGIeIWDSTwppKISzplvlOYzJK5NynRHKGMrnMHb04hMSjYl1xJe2GlpO4LwPcJBXHX1kUSCTt+G5psbHxQ+d8p5WZQWo++rL4XTWk614pEmkaa606EyJ1t229EVBf3nCXr/1/t/969XveyN//Ebf/5Pv/SStz7j99/0qN9+L/PI33rPo37rPY98/rsf9VsV3/H8dwe+/XnvYr7t/7zzEb/5jw//jXeAR8A+9+0Pf+7bH/EbFQ9/7j986/9+C/Ow//Vm5lue8ybmoc9+I/OQX3/DZr75115f8azXfTNgDQvN/Oprv/lXX/ugX3n9A3/5dQ9a57UP+uWKBz7zNX/+yjdcfePR3rCIdDLb7aRKKFv0lo6NjdpY0rDLlmtCA9Zs4QLWsKxhAdwt8BQJQsJgSVj25ssu/4AZviVb+p87Y+Wl+dqfm7U3uLV/pcFVlA9EmQCsfAKJJ0lKZ11m/MBX6+UW3dlm0cRqE1MwjpVU5AVFkYrjWMhRTTwJFj3ci5NQq5kcylY/mfqPa1Zf8vfv/d8ve8fv/eXb//qtH3zXx7/8qSuOXLlYHC3iRdeam+6A2ak2bB1EZrqtMTgIW4frLMxONVJvs64Xuh0w32kDFrABDsINYmGqtZk90+2bTgxbs/sMKdyNWJOXeZ+8ifAEhARAsniPocUnLIBgWMOCEKlrBOEG2GUbgo3CCYRx0NF8eCwSyyq/RuVfSeWeHeHXLndrXza9z5SDDxeDd5XDN5TZq03xBhLLpIa4vAuPRbZtyzi31uA6j8OeHuQWzRpT5b8j0lHkSVpcbwc5UpJElJG8qUhe8c/f+B9/8Nbnvvqjn16r/qvKnJTXadKeak/PdKbm2t3pdnfKZmvA5T1YEIQwQ2kzUBfQ2heMcjkEWwht88gVsHU4okzGwSDgomWA3WFBENBgzEUEh4iohAVBQKezC7N7DjoSpcltWThTYsRwaiFdWMACFDFB10VdoxrcALuwgIMQjXjcJRPu2NSotKNsO7GpLBWVZke0OlOtNE4jk4hFaa+x+RfLwb8P1z5iirdS+RHyN5HDlJOsfs5MhB8d7fQYOalZTVjufSTJOlodFMPSW0lRp5OJ5KtHsr/+x0/95p+84S0f/fJw+iK579JvLFMbF6k0xZWaCDcomKrMmYxMbuIZUEbTsCCIQk9tDWqiAiyAGPoWyKgdLARAJBcdwAJ2HdHOagypVXebdJqJNJctwAIWHD567MTSYj7Mkkh32+1Wp5uVLrOCiEKuQMBloEHQEHABBMOaLUdg2YUFcLdAkKuOTG6UFRFRW1CXaI7k9M6gCPdSRLiT72g3m5RziZlvlXuKwUeK/ieo/znKrx6t9xQrikSyRZdOskhO3N+XWlopnJK46kYyEvj6L+X0V/981R+++SPv+I+rVvV8d+95tihEtnLBXCpUQjJ2pEvrrfUOA0WEXeeKw41MD29qpNu/YYxO73pEFoqbwXx+E2ydvebwnvIQYAHLLJSH6uwxh+tu0CE+Xxyay2+uw5GFudl2mrSSyNtyMBh4oXKvnGqHXKmLoDGqrNnCBdCABSyDCGDNFi5gvdlKnwjCRckbicKBpdyRIy+8PLEjit5F5eA8my+Q7RAZoVdUfFi3bkoMyWzRDL/s80+S/SyJIyQM7g5xsNNEdR7NTfsCXwIypTMuSYQl+sqVR//6b1/7zk9ddVUvjvdePL3nnFirxA07+bH22nXhX1LhMu2kIolHqgjiRHoeWGydDwuCWOlexKxO3aMultoXMKgJwRbiWHR+4Kg+L+jj8QUnkgthQRDQgcZgKA3iiDpwVB8ELGABXFMUpsgiJSUJZEactryMDE7w1qOGonpgzEXR5shYsLEC6oxTfbcTS6J0VFC/FKsl9Yj6wsY7Qu29Qs9fI6dvpnSRVEFOU9al4bSS52sRe3M0t1+y7gvkriXbJzvei1PoS+dc/eSh3Wir+oT3MkpGWhqid37myPNe+/GPDi7sJNFURJHpl6vHih7eTnkTdftqOnKWUd4h+4TzI0TLDlLTB2MiylcZna3URcusgbRcha2T+H7serBjRHYNoAiwgAWx7YHIrAEWsAEOwg2iJXKQUgZbR2jhBFYJ3II5Gcl+bzlRRpoe/1fAweKUWfPcCCFYBCtHmxhtkKNPAQGCrgtMBIMWEGcL4eMMl+CYTFtSbA+mflbrguQMCbEj1FoiepEYaCo0WXy/JGkBCtcjPxXR/hTXt+FnbfYvRFeRJLwWtpR7MmQJy66hmyzheZxOfsMISCEEso5PGMJaC0uEM8XFNxoQve8/rnnre/+lOzM7ik88KFrgsrqo67FSuJtLEQyEUkTqGi5TD9Y0F+7Yhhbqoq65xRBhl+1YcMwdqxNKIcCkUo7f0VYOvBySyAiLrB24/JjNriB7Fd4BSNKl+6gAABAASURBVIqE1yQIGamoK6kFQSe9SbRQlqUxBokIqpSUUmtNUmZWDQW96SNXvvZ9nzTp/Mqg7KYR6jeyzaEM1dBI0EFwsO5ujnApLEApE3QQHN++DTtuFvVGQikH2WUbIsGti7oONVnUbahWD56MRoONTGwT+Sf7JHLyhkxOxVHX/6Jd/bCzN4jR+jfasSSaIUq8RGgUOAkj0T9kHn7/CI3ArbSMnRZv++hV7/nk1/rp/jyenZ6ZtQbHrgon/aE1LgoCLjRgAQvgAghQF5t1iKAmYJctXAANIAALWAD3dhB2DAKNQAMWsAAuwxoWhAg0gMuWBTQIOggOssuWI7B3DqM7KPJYmxLpcdNRqOImkX+pHHydij4uwSTx+mfoXXWZFNQ/+U5WV2GseetpRxQutWj7o18++q6PfOZ4rjp7zi0cra2txRJX5+aDYvgAymBBEKzZZRsi7LINQQiAIGABGwhBFohDAAjAAvZ2gN0BdoQFQbBml22IsAsLxoLssuVSaBB0EBxkl22IwL3jEXhAtjHhNwmKiWalmEIySlq1w6+SuaG6CuO20AmDFCR4eEygk9zQ/noLSD6cvFIK12KEPnMzvfa9Hy+jKd2aOnrkUDtJpCB1S3Vq3NACx4OACw1YwDKIAGi2LIJmN1gIhivAghCp6xBksVO7uSm0gCBgAcsgAoKGgMtAA2i2LKBB0EFwkF22iJxC0GYjkw4R+TZhCcTTl3AkY1Jdki0SmorrqPwq+RuI5ChCvmoiqczJ/UncBeL5A7eDsGEtXF1dfeW7/n0Yz63kfqaTxi5fO3Ho3vc4b2XxxBaHw6lyaV3UdShtDHIpLEoBC1gGEcCaLVzAGjboIBDcEWHHuqhrbg0RwBqWNVu4zJg7FgylEGBzaQhy0R1qhSJZkFojAnmVcFgOvY7kCeuwEF5FTkrSUhkv+tamdNJb9eShlMK9oMYjyKi5EydOXHHFFTcsFyulnl/Yk2fD+anWvrnu5V/9SiudmPVh1DaLUavrJpSu+6OPerCuR4WVqQfruiob/YVgEKPwDkzYcbOotxJKOTjmjgVDKQSYVMpxtqEau9uxp7iOwiJXEK0YWi5pYJwxzlknIpUbf2NeHEYKVneEhEfm3Jbq5I8usZ72DSHbyVgyfTLlYG7hOW+/rqt9W1qTDYSzRWkHmUm6c06364cMqyaCQW8WKA2EUik8qM5XeLZwK2S1oRqAggUQAAKMC49Xxrg2CDESwWIum6HqX9n5TRYtcyfHBL/tC1Z7wXqsMrtsx1pAEJGqf9XUuTHhvWVwHw5QymCvRgRpwpnijFHsIZ3HRdNbwvNqE1KYRtbrE27mRlSNlARre+QU+Xkt5iOZaGW1Mkp5O7xXnOdi8BoafkEWq2S7hmSclujFSSKr07Y4Ji732uWl1dHb3vvFtINH7oktY2q5rC7qeqyUXbahWqM7FgyVIcCkUo5v3zY21Rjc3GaoxkVj7lgwlEKASaUcvxPs6J/5VMetC+hGlLC0EtEeKr4hxLRQpGmWrKWT3iSZoh0JPWrIJdOHevTBT/wnpfjdcBTaZLY5lKEaN8Au2xAJbl3UdajJom5DtXpwOzrsuFnUdw+lHGSXbYgEty7qOtRkUbehWj14MhoNNkKN+cRBPh70mGB3zAr8KjMQNJUVX6Pqn6z0pCNT+rFat8PFKohENuTNYJgVWr75/f+RR53M3UbTOFs+WBBwoQELWACXYQ0LQgQawGXLAhoEHQQH2WXLEdjbQWMLCAK0xpYFNGANC+ACCIY1LOAIbNBBcJBdthyBvTPZZv4R4eFDy5RwmS7XyHxNkBFEzvLadVJnIEnjBw9c0a2TCj93f+zLV7YXzrGTF1gMHyDCtwufVaZWH6M/BAEkWxbQIOggOMgu2xBhFxaMBdlly6XQOwJ7AewCC4JgzS7bEGEXFowF2WXLpdAg6CA4yC7bEIF7GkGSbQEOzKVBsLvJWt8TtM+bo5GXeflxooikkwLJgz1PCulFPFjDe2gXp9G/feFoGU9n1scaKb5Vu2H4gkBtaMAClkEEBA0Bl4EG0GxZQIOgg+Agu2wRud2EFoJAU9CABSyDCAgaAi4DDaDZsoAGQQfBQXbZInIKQZuN3MYhkGpcIwh2N1nrcrJTwuZKFMbgWjwkGshTkIEk8Swctao7P1yPP/7pz8vWTGlNojd1YRRgg1PdLLYOoj5XYAuXGXPHgqEUAmwuDUEu2qYNe9VFXXM7iADWsKzZwmXG3LFgKIUAm0tDkIvuaBvSbkOgPxNxERlDYj/RtYoKk19JXsst82Sbp1P9zqzjdNhb62Xu2psO97Ki1WppQkI2t4AucsFmwXG2obTRHQuGyhBgUinH2YZq7G7fhh03i3ojoZSDY+5YMJRCgEmlHGcbqrF7+iwO1AhupNYPWsu/9Ujjh4/wYobEQeev1dTNy6vJpySwgjXW3kFQRkUhvE2n9n3+mqVVOW+jGZuXcVb9Q8DGruMVFze/WXCc7S2l5AThpsHD1kG1W+oIAReI0QYBIGEBi/DCj4UkwcKNNty8jj5vMSRcI9xaaDYI5aiO9rf7/d8t54LGAR8xDCYiAEEGupE8aYtscaFt1iyVulWsHesmkmbPI7zSFK5POhOHsFCYPn43UyQKvOCt8E4yzsoRQthGyBfrEJ4EKoQwFVSKJqRVrlNQ+1o5eILuXx333ka+P/RJY+d3FJRxpMh5S3TFNddrrZ0pYi2tqxrxm74fiICqbPQ4MibYZRuqNbpjwVAZAkwq5TjbUI3drW29ctCbRb2RUMrBMXcsGEohwKRSjm/T4suE6cjzPI5j/HyKaSqH/elOi3dHmku8mMMX0TukMvFMsaVqbmBA1RkEG0HxTsCvcuQdYSURFl9/5Ay5NYl+7KSRxroS/TVe4teWL3z9aqki8hZnbiw673kHqDHBLttQWnfrQWhQL4VGBECAzQLBQCjlCLtsOTLJog6ol8IF9Qj0WIRdtigF0AAC1EVdowiECHSgMRhKtxDYMYqiLC+Vjqy11b9RKof75zQhn6haISThOpgJynA58CRG8VF7VYVKoIXq4xT9KWHxrXBWkUIKyurXpeKGyJ+C1iWhMa2PDumG42tSypYij58EN+4zw2kEgWNCAxawAC7DGhaECDSAy5YFNAg6CA6yyzZE2GUbghBbgMoAFdhCAGjAAhbAZVjDghCBBnDZsoAGQQfBQXbZcgR2RwhnUR8rHPJPKyGd2Ted7p/GilGtPIqwBrbIXEtIQYnVSaJyxUnnH/rciBIGx/FGkUbHlPCyHF4pPX5Nrg57Mn+SygLfqWuP2kK1LYlWrFxZkE64H2h6TMBFELCABXCZoINAHBqwgAVwmaCDQBwasIAFcJmgg+D4ZosKgOMsYJnNQY7AogIsqAQ+RkADSLYsoEHQQXCQXbYhAnf7rCdflAyLEtdicsVl97qwS1gAsfLgcgilyV5DNMAqSCQJyQcInzgg6mwIBHfEhC5KbwSK8Agih+SlcrLAQ7HF6zxETwp03Vqir11/VKbT6DtOy5qC8BPgqFlERp/V+bCARRCwgGUQAUFDwGWgATRbFtAg6CA4yC5bRAA0gAAsYAHcreE6bLkmNIBmCwGgAQRgAcsgAqDZsoAGQQfBQXbZInI7wL7OOVyLsQpi90j4R3zzA3Dz76r0cxJPIpZceY2knLBEVkHUumWasHvl7/wPOzZCvpDIQY83gRlV95/alteQwa8ZOz/GrfeQhIcPpODVNxrdwskU+VCQM9W3qOF8uHM02qBHn1W1oBFhzRYuM+aOBUMpBNhcGoIoYs0W7hagDkAFthAg6LoIOlSoR0IQok6oUxd1zZURAay3b7EL7ossCaVjTEon0Q950APIV/8Hc2gEc4QkNP4QUVGtgALZUU0EigD2hQUQOwV7NeNKQocoIbyIsURSG3OY7KC58k6iuIdwuaObj57IrRdCFEMs7MJYh65zO5sFx9mG0kZ3LBgqQ4BJpRxnG6o1uhxstGM7cp3NwbHImDu2VyiFAJNKOc42VGN3+9Y7ixl3o4Uwz/M0Tc/dE5PH4lBNGa635Mk7/Ghmqja9DAfaLKoKJ//nLSE/cHnEnSeu7CSIemSLk29YUm5vWKMbT/T2dKKyyPvJ3lx1F/QQh+PWNwuOs72lFKszOSm8GIlgUe2WOgL9RoDEaKsUVZpGG2L4FJ7qSJSPIhjZRrBLI9zaWBGCeOHHRPgie/zGWf0394igCGDWYUEQdR2CEABFoC6g/Q7//d9YD4MbJ13S7dW1wUJb6LVrfvknvwdFGe7co0VhW3oQk3tPkvS9zH3WiiUujVaICikdo5QHQioh5DokBIMhJdzbNeLC3NUF6WnKkPVHyKWkPdlyXp1Hiy/Cd8ISGZ9Vl048VaAKkpVGXwz0eBtIipLjJwodxWTxtOOFEESEL5+vMh2SNosquvEXSjkw5o4FQykEmFTKcbahGrtb23rlug571YN1vbnC1qWof5sVUOdkKAz1h/l0d+rQDTd80/3u+/DL7pENB6mMNM1ITBGeCcpjrjBCtoSU1uIRoZp8zFYD3I+NCa0qcORUWLQqiSRJL0bN+ZHFEs2f27ASD7/X3HBzHMfWWjXacMPLr6apto2NOLtsuRY0CDqIxiCX1m2oxkF22XJkkkUdUC+FC0KENSwYC8LdTrBeh3epR1jDApSeKoa5S5NOMej7bPCU//okTTSdpmg88nG1SvivmvI6X2Kx6WBdK231/3OL0gaEpzrk1t3xqsF3WIIa8I6a8G5JYM3z6KBDJlKViIpwlNDebQlJIrr6+pt0nFYpKEnJagmExo4YU8ACFsBlWMOCEIEGcNmygAZBB8FBdtmGCLtsQxBiC1AZoAJbCIZdtiESXBawTKgQBOJjOkRCHGIsiMjJs3fv/uXFEynZ73zYA7/lfuch+/rLS+SlQta5m735orNHqv9vA6upugTmWx0RKxVADbZE6PBOwd6NCHsD4WEZqyDuQJCLRAI5vKMUxP3koaPHpY7I2+pOTghchZ0X6CKNNhawYBSoTNBBIAoNWMACuEzQQSAODVjAArhM0EFwfLNFBcBxFrABxKFhAQSAABCABWwgBFkgDgEgAAvYQAiyQBzilDDsLe2ZSihbevbP/ui+NsWeZmfnCPdpaD27PM8u1zSUIqHqv4DMq+sz0qsZ3KohKbCGVYJvVYkQQUNNCE+NVLtgr3GcvY6cQaEXzlHp15tEtXV1mx9yraDFXkYCN63IPiu9Rwriy4Y9/WhjAcuMYusHgkYQloEG0GxZQIOgg+Agu2wRAdAAArCABXC3huuwDTXZhQUchABBB4EggMuWRdDsBgvBcAVYwJFTZfvLNy4fvfJ5v/b0C+ZIVxdckw8GpGJyV5j8a644JqtXdAn5oadcS7y0nnTkUfJVjwjOj+wo/xw6vDPI+kbs9eRyGmWEpSF/R4j9ST26dVwurxXGVmmHJZB81TOkIAmk4qhVNIbv1mgf7vFIVgbqWH/ZAAAQAElEQVQuPthCMGPuWDCUQoDNpSGIItZs4W4B6gBUYAsBoAFEAC6ou6y3E+Q6bMNedRdBuADilDDf9j/2Q094zEPPT8gpXa4eP5J0un38kpV9ztnrNRaeskW4Civ8iOyE7+DQjVBt+rhjXI11k8UC1khTXaSHO0reYBVEJxzeVaJWlThoAWpbyEFeklBIO4lHeSylvvqxRIjqrrLeAPq9hctFoU5d1PVYNXbZhmqNLgcb7diOXKcerGsuhQ3BIBAM1IN1vf0KoebtFo955Lf87I8/Dr9FEF6b9Zan98xX11Et8/xK4ReVlGSSasa1kVp6h6eBbR2q8XS2teeESsL3yKFrVTGWyfXlbyPvq+ht/clv3JCnvtB+eaiSUs+lzs7gNLUXGxtSE5JtJYTHeqkkwYIgqiIpYYG8teA+IF4XY/cbeCziCNfZvlWlBJGTsVctilqkUi9hS5E0YlQKrG7BgiBKmTSSeT3G0ClESqEYpABjVTQisaqBosxxjxXFWmpVeD8oy9w57LhHL/l8yaiWnblwVe85tNhrqfwHHn3/F//4dx9wlBKWu5g6B71rifxK1X9HUlwTFU55RfEiqWUq2pQnyp8QTf/ID0GPh5UR5C0QhEtlhfS40jWgHDUiSDTSP/ZVSoYU4/CYggMSy59etTRF294kLsNOSNSvMgDrKr4movLwxyDAom5DMIjGUgRDhZrwiI8RSsfijW698qrqDdO87HjTpUHbrkTFCTE46vqJvRWx6XEktv06kenV3c26RRlI/RCwgAWpz3ZEt5Uq8kVReGfbsZ5qtyIpbD445Gbl/IWZcX7tRLp28z2nyv/5pG971o88skoESYXF7x9rikhkZPpXl/adtMs2VWUL8g7fr9AzH9R2hFwb5E5KXz1UY09HDha3nZXF/mGyg9giWK/D1cYiHIQNcAW2IdgoUAfUi+CClibp8KvO2sryibWlpXw4VEK0Wokmq7wBLGABXOkNowjPXoYtR2Dh1kEkkr4RVwx3RD/LhY46nQ4uEcsrq4uLiziXhYWFtXhfqTsz7fj4FZ9+4F73189/xk8+4SHTNDRe5nTIiVVVzNKQXPl2a96q+8vY69QgHDUyqXVcW5uQ5AkLPBFWVBptSB0vqsQcebdt5OIgJxkTIQudEt55K/BkTMKPNm4AEgKWgQbQsAACQAAIwAKWQQRAs2UBDVjDArgAYgtQAaACW4hOrmdMskd0zk3mzm8tHIxn5n27m6mMolzEgAUsgFuIGOQopYgFbCOogzgs2Cxc0t0RIplay/2J1UHh1cK+/fvPOVdG8YkTJyLTX73pivLw1//seb/wqpf96v0vWFBUlsMhfjtTNJ+K8ygnP/xoWbxZl9/oFOfilBvBgDTSWLkKNuVTeHapKoz/OaIGtLCUD5GHGldqj79qN0Gi+tjen1zqFU7GTpC3eKbxZB156fx6E3xWaAoCNsAuLOAgBAgaAi4DDaDZsoAGQQeBYCOoALiIBSyQ6Szu4VZzu7SaLff6/UE2HA7zbDD0STPVnUsy3GQzkQKOs4AFAx/3XQTGBNwdIaXUow0DnfV7veXFtaUTsBfLI7/x44/7+Ot/7/u+7T7F8goJ10POteYVLeo8wfpH9NaSXhdnc1HxQFLLVZY0Zg8PzQ6sJyROA5OaaMg/IqeRl1mfyEh0HVWqxMFyNqmRhjhSMPcKLz6lx/pHzlu8fcdpCj/aeA/IIKABXLYsgmY3WAiAUsAClkEEBA0BF0BsDddhi5rXlWtHqBx0pJ3TYka6Vl5Gq4Va1flynahYYTfKlkGcr8DW4QgsQBwWQIAgoBlEXO/ojsgXb1D9o2Lt8PDwVfnRq+8xp3/hKd/76j/7nTe/7Fk/8z0PFqtrtrfc7XQd1oM0WeyXkZkhu+Lzd2XD9+liKOSFpOfJr+GUG8GANNJYuQo25jGCVdkO/iJczYsMGaPIO6QgEVJ7B/sTyV5WOKEhkHTSE04DK6KttYMItxgE3KCD4CC7bBEBQddF0KFCPYJgI6gDUMQWAkwn1JGlzpZp+aa4d/M9ps0Tv/miZzzpEc/+b98Bfv3J3w4Lgvi1//Yd4FlP/vZgIQBHIMZ49o88KvCcp3xn0M9/2hN2xHOf9qTfesYP/cXzf/6f/vZF//bml77+JT//099z2WUzflaXbrjaneq0Z2ZJKynIDvv7O4L6h8m8ujB/L7OhLM4hdYL0DVbM4NwbwVDsEORLI5OaaayMZHGuKIgqEbIGVSe1sjkuM2MJL1fEqEg4T7ZSXlaWqowcE+yyxViwgK1ruMzm4FhkzOW9Gm1jTQT39gePu+Qev/dTP/WO//uc9/7J/37Nb/7c7/7ok57xmIf92HdeCn780fdl/sdj7vc/Hn1f8GOPvi/48cfcD/EquBFf1yP3qY+5X8Wj7/sTEI+77KmPu+wnvusBPwH7uMuetsFTH3v/bcLVnvLYBz3xW+710AumL2jns2bYtcNZ0d+TDpwt41abhMxLXj5MK/EiP0HuTWbwdZW5GFOhll1xwtghXtI0Ds4dEMRQN4JD4xSIqqzb+RqKvUkOB0elGUyRU9YOy0K2Wll/0BFaUJXXUvgxUe208ScEZ27lC3GLrvzRnxBC0jpKSGi2EKPyBlMafA+UxI2TlJKqE3OSrFLR6GeqQuhcyZXBYjm44ZH3n3nZr37fO1/8My/8yUc+8X7puRG1HUlBXjmvS7LY7dY4hbMkNMd4haoVhIuArgRH2IUVEQGuDDtWWn3lPW22+PY2kTpCorV0HOuWVC0SKfAyXo2GA5L4PSDBeOOeavULtPg3tPY86n9Vm1yLeULeCSOV0JSqIhLCN0PYvwmbiyaIMLZN+JKaEKQaIWtt/DXyrYIilQ49FjTSyqNl2uYmlVKoigQPVuAUN/KZ46EIok4oRbCu4TL1YF1zaaNNk9g7hx/fSWoVJY5EkZs8z6NOp91KzOrRZOXGH3joPV/+/Gf+9tOe+KC9sU4ul9G1uE5ZNSwdmZJKI0sTEU7rdGJJNCPINuGiIy465vWSVz1SZfUGQuANRDRj97edVHTU+Y+Z8lUme2+ZX1MOkNyNw3PnBZESjZx0jySe0jg5OPOgIbhZ6DEBF0EAEYAL6i40IgCCCToIjm+2riywOqEPeVn0h1lRltCx0kcO37h405XfevHeP/lfT//dn3z8g/fp9mCxKzNP9/F0kfML3qa4msmor/VKpBeNp9OKI92I9bIRR/s97SWaE75LLiIryRAQ5Qpl/+n67y6Hby/K91n3ZemHkdjBrwubx/CkIo15huBJNbrVzjKOYzfacN3j/MCUQwDery426xCpV64HocFYaYhwvG5t9d/vOURMWXULPyFoX7hs9YIZ99yf/ZGXPvvJD72gq4dDciUlrWxtUD3B22pN0UJoSpTrSD8j7Lym8rQSedNI7F0j2pAyJLBQF0uUX0XZ5yn7GA0/RL0X+v5r/OBTOltOTZr4aSUTUhIj0Iz3uEPfDIa0keZGdlNUJknCXQ+ZJ6VEhDvJAhaESF0jCDfALizgIAQIGgLuFiRa4e4CxIlOFMlybTZ29zk4/Ze/9Yzvecj51eKA/JSq3yv7Nqa5A5podBNqyC+Tvc7nXyr7n8x7H6O1D55eVv+FmvknWm3ADd7skGq9l/uKV7jey+3a39jey8l8WZhrlR0ql0g7QyYhW5Jd2pxk6xE6vRsmaEecfG+qVZAPyZkHHXIRGgdgyyJodoOFYLgCLAiRug5BFputE9Ia7OEF1sP+UuoGj3zABc/+nz90fsvMR84XZZHlTsXpzLSOxZAGZI9TeTUNP+MH/1wO3l7kb3TmdeRfawbvPa3YwbsbKQfvbsQO3uX673eDf6Psy5TdKPOeyoXKE8ruQ/l5ZDtEBYllUmBAuFncPDSjSDU0O/kb7XQHmp0fav1eECfFmYcWgoBGHBYEwZpdtogAaAARgAvqLut6kCN1WxSFUgp18BP+gdmp7374N/3Q4x52vz2KyiF5J6NIxokn3C8uJ3T9nL3cl//PFX/ryrf6/GM6vyrJBsmwlQwWdGROKyrOGol01kyptUuVawuH20HcFB4kcQGpezjX8hQTORIl1nySgnxEvo0RaKQ+VqdDNx50i+DJ90HyfOMYoS2kYNAs6qV1zaWw9WBdo4gJwSA43mCFUnFU4inE+4c/5IE/9aOPuWRfd7h4mDTmSXsipQkpSvlhOvxpd+2Hba9P2VCaTOJJVDgiQ7Ykk7vswGmFsr2N+HxPIyTxTiZGhnk1dPGijQ6VybVlfIVvX+lbhykuSOIxZZ7yWZe1XT9qGJmzNCQftE8IlSz6aVz3prTt4dZfpCkuCrUTridlXYcq9WBdowJyrpE8bq1Zr6I47w9auAkgZ72hWB8XFs+/3dVj3//gg7/0g980Q7nIB1OdA2titRAkChLDHq28way9zNG7ZOsGLUh6TTYl2yaHaU4p0pRIqXunhmhFNkGq34iIsgo9FIwaiBH4BZWEp2p0tMRy6DuR60ZuWpkZWbbJ4BRwO5uTGu2eZuQnvJ9zTjShfNkIedkMWQIYc8aV1ROeK6VyUtp1hJG3UEqxjqACkM+BzU4kU4+1+nBsSeetXA9zaimLtYC2ucnpdlIWmRIeg4Nc0VrDgvr+dbeuQ516sK5Dhc0ikqS8LfNMKeWlsB49kP3hYGFm6tjN1377Q+7/3570eCwFgpQVMQlq097YF85/3eYfMMVhaRek2ksxqtCu2/DQyn2qC+hGcAlm8FaXxbrlJk7a4srQCBpGf2BBXQSNeKAWHJ9fEZHE3YPaqDtKPr/hbeNT7p2fLfEzMxFSELkbRZFzDnddOBKg2gYXhABrWDAWhFsPwt2MtoMUXzhyeCtUWgd0nHovBktHL71w4ak/+PgL5/FygiRpFevMkMqJiq8WxT9k5p+8Oyr9AtECaUGnecOJNEK++eVIFecuocKYYLfRblTGsRrLbwk25hOCt9S4tULLk+CKKB0TdRelgCOEk1tPrtBPgRsMwt05JkISDNcUISPZ38rKgwu4FuRS4DjSksCV0Tv8RmZ5JxwJQLOFYNhlGyLBZQELuHSztVkv1TLWSkU6Ly1qYjkU3rXKlaf8l0ff61whLPkMjx1kPUVtouGVNPhPWV4Z0bFIlMhNDIgry80t74oIhpP7EQS7my0WPzBa+fxIwILNFdcjaLCR9eLNH1iWGhnVRFOjTyQXf65bjrMdhTBBYCRRt0pEuIBUhxR+GY04/zzhtyHUCskIfRvIhakkjaVEY4CEx52V94IcPMB7s4ANIA4NCyAABIAALGC3wJWFc844bxxqyUjJor9cDlZ/4Du/9TsedE713FEOZRSXWW6yI4puIvN2Kq+My3Zs9xPhS3bC+2Xvq7HA/ncCOPQWoENcGgS7my0q4MuEM0HRSIwCWxicciMTdkGzW4CduHR0aPQC+VXBcdgQv7Wuao4iQnZJ4qFeVykoRqEdGtmNxfx0Fy3iKkxKG2OEuFVLKEKbPyfbogAAEABJREFUbCEYdmFBiNR1CLJosDrq52U/N6XxuPqnWuQrx/d05Y8/8dtmJZlsheIEe2ll260TZvkjRv6no1Xye8gcqL5pfk2IXKkYdU4rOKlGbuOgmFeuEQS7myyWDUC4kgp3K7Gp5noADTayXrz5A1/xRkY10dT6J9J6pNiM4nziG4HKCzoIoaewCnrSRJKqNqo/Lt2mlbibWpjpksfvEVZInY9SUGI1rKU/Dh6agwbBhYALIJigg+D4mJVxO8NPcEI7qTwuQLboRv4HvutR57RwNqVONG5yjSAZOSqu8YsfMz6qzlMowgpIhAuXd4oszhzOLmM0f1WfNgSGYhJVtdEfKow+sQZtPYuN+YQg770TW+se71b1AUHA/sgiCEayMkGvC9Eiiv36rFQVJMzWZ4AKNXAJdp12C80BKSWvgkIIuLVq67IerOv1Yrpl+BpLQzUIL2NLOmm1oyjBQYtsuGem88OPv58w3vRXkX8ZUfVTft5bu+GL0fSqLfdZkZAeUDykSJBoCxvbO+9WECfYCIYAZ1exMZGoVrkT/xxVtz0WFlTfRny9KibusKMCj8abCP0M3QuC2x9zx4K3lMqIpHJYAgVX2bGVXsuH3uvglFnOnFwe2vnYt4RZNCmycHNj9WBdoybWTSAJyUt1gb42kmduNqJ2sWyGK4VKjy+tPu17HnWeHRotbKttrU4tJcOrbO81SecG8vfuCIqdJdwuGE9OkZCknNIFnaqNX49tspJ8I0LYRsgX6xC+HxVCmAoqRRPkBBAeF54KnBUjnG0EabojBGakCfIlI8gweDMGyFlGeMesn76fyv0REyeW5pTtaz+lsxnrv1Fc8GuFWo5sz1rvFbX8THUfH+1gVvBGh+ZmZ/BeJlJC4ZiOh0QgbzY3Uw/WdagZgkGEojGBFbda/yzuAEoy+b6F2YsuPJ/wZcKfVEp6IiTcsqBcSEd4BB7b/053scg1cqd3bKwDjZ1EcKzabbpeSC8lvi74lkoiUZAyQnfIR4JiwRdiQdVWWVOJ7f1JzO/B/fu8M1pJKfAFKLEj8gOW4WSCBRyBDTqISUHEG8ENoFASK4lSSpb9B93n4ovO75CQzuFeUJPAd/GYKw9536+WeTFsbOSOCGK2Grkjjl0/xm3pxk4ieFv7bbfceyGQbYYIb2iJxJpXuU4OCN8WlAqBZ4oq9agyqFNlEW1vk8KX5+6hqVaCNhRhTcJNCQlRtYQWOMPYwgXQAAKwgGUQAdCwAAJANOPLAq9kVJzGWua9R37L/fFw6wqLFBTVWpiTud7ZG6TPFK65u3AVpJ1tGIpGdtbKVrUdUSNb7dNQ5n11m9hkNeEnLVy+DXmkx8CoQqb3kjRVpSBFVVMIV31ACqEnVWA7f1L6EntfeO4Bb6sX1ORxScdFkHi80AQELIAAEAACsIANhCCLEN8sYulL5JuIhBCxHTz8/vvQ/9IT8q2q7AuyN3t3SGHZ9xH5Knbn/DVNBt2O4GnvPWa9AUzEjpjYTWskKSFKrFnkEqLCYtFKHiBFAoSQQmJXjAvyD6Jy8LEdUNUqom+6/6VlNsSSiIUQF2XcCPPO6D0ELIAAEAAC1AU02BxEpBG8iyahstLjZ+L9c635hPzo3wEq9AgJV6x5c0jRkiTcHLTJ4mvS2MwZE8TgNLLrTgBZ1ExJuNpiRcDzik+Nd4VIKXqQqDYSghHkpcevG7iZ2vaJSaze3tE33e+8cthH/gkh3Gjj8aq3MxaBy6VBwA06CAQbcWURRfGgKK2133Tve+BrlcRS4NuAldwRZX1vl6ToE1Z403UG5Y3N3GlBnOCOOP0dxag1sKNOovLEfnpL1fRYgQR1qfPKUkrq0lp9HB2eJLzB3cmSIZGC+bA8Z57KskQDSGP0A0Azdc0R2BAMAsFAYzCUshgO+0IpJKAS4tJ7XuxKK9CVqszismtM4f2QBG47NJZ97+Kq5M74w7k0cmf0ZatjNnYSwa322VlZWS101QKBHIltdccYk9w3agPJB0aSBFY0Vtu0stBz81HvoDEXnHdg0XdKY9t43taxxPOxqLYxIQkXfaGEHBP14wmBdFoP4EenRmSr67PltsivLdrfco6gSOEVX1RlYYTTJPcWZYwrDzrVcvFhFYczXG/2tj/wTN0I7jKbKck3IIRtRuK7I4UYQTjhEZ7Exmu2TcIJaqLpP/IVNic3AaxGTQhSjUhlpTTriFv+wZ8ku443knGldBgBfO2bkEepIFvsU/GA1ID80vz+X8uTIVWbJGIIoyAVgSq8vT9ZVVMR8uyye1+Ma3GSJNaRwP2291URVWpMsMt2O9+zUGezEEKgHSEqC9GEI+GIQFPhHRDDOEyCj47SMcHuHWzRjUlwT1A6EmEWRt6G2Sjd8Dd9KklYeXxJElekm5W6hMSBLaZt0/4TA7hyE5qWUn7HQy6j4bLWuvR4TB6f8rF+s8uWttxCnUaB42JvpRSsWD8hPnTdonDH4HCN4Cu1MyYdWXiqgy8Ju5Pqo0IzE3doLkCuNNJcezyKMblVCE3BZwuxBUoTKY+1mVq5ujpKvp3kBXKL+tsukpFAXe2J7n8+LcQ2K40RiFUZgO4CFLNlAQ1YwwK4AGILQoW6gA4piEGoOsJNsBLowwaYXS7aVRadBugSW0Ju45x2BvY+7aB7YNQ9Pha6iL5WwB8VjT4RRiJANlGloBC4B8B7DJWJ1iNx7RX4o5PdJKa7MNWBp4guPW9uOBxaoWnj7SCaR7/YsoAGQQeBYCOoAFAEC8YEr39sUTQCaUe0nn8Q6NsoQqdow4ifGizxqoZZIeerEePIhH7iW9TIhOoTwxM6j7FthFB/1BZK8QkLINa5del6sOnDeyx5Br+lEVkXX0KdB5NCAlaXr6bqO4hJjGNZ/X9TUJvoEQ+4pycJV1XDis6jt8iASoQmq9Ct+12PhGpjAnU4EgRcaF4FcfXfaLIK44/wVIyPKhHxARz+dgQab2RHjWxZ2eGLWjHKP+J0rHTjYScGtzzEqSnkY6MtCNh1MOJg5HAcFowCDQa3Z4QbQUoKN2yl30vt/RTjmQFX54bKOwrhXtCJSDpkmuk/4kH3bbfbmXHSu9Cbuggax2DNFu4WhDp1AQ04BdluaoHTzhEWj2qCN5Wf2gDmowl0shF8L/n4KA0iaI7c2rqQprcWt651Wx4OsVO4SewVRNCIsGYLdxKlx4JXEKWlW0vT/44FMKcbTsm0YBX0uBjjBQi+0AdmVaeD9zIYrPGejHVxzB2vXfNDzc0CtYTAjQCFFAx1UDQC34zR56kzOMQY7J7kEdDISbZwx+w+1s8xd4s+WCRFtQpq6wqKHoo3OoaO8rVqi722UyRLqxIijVdlupV689zvvXd6/Ktm+jxVZpEtWlTOpWquFQtriqyMox3/V/5ILzHa6gIalyxJwpSlKUpFeNwnRdV6hyC+W9UV2CnhJKheYDkU0oQNd2ANYHlvROAAwguGnNiApCW8CWeoJMYXgpr/nZ93+I2qAl9dENqRXjSiHDVCZCZgiRoQEu8pjRAjNvpGVT/R1SacFSOkry5uirCaVRDeIHsnyDNYhpj1E6eNEdgQ00lrYOfWWnb6wmdQ7PAWN7GXZtU8TZiWbYdlpCUqKx3DgvMO7v3mB9z3xOEb+nkZtToyap9YXltcxtqbdjqt4aCHOrdJ/btV12HHxmAoPb0CV9vNB0AQcHyz4PgusZu6dwcNZukpuorkDIlvJyUpcc5L7avkOcmBQRPOWi/wYwduLon2zSbf/chvpcFi1J4ZlNQvPMVtr+JhXjpTJHhdM+GAGAhQL4QLQoQ1LAjBUyB89VMRbd+GQ2IXaFgAMUZjcKxOo4uFoZHGygjiQDsCu9Q4xYNZa3lcDpdVvBK370P64VZj6T5BhBQcr3U7fElYn3G5wx3yKKNxwXvYZfsefMkBIcQgy0vv41ZXxQnS1FsXCb/1MTAiAHXYQjDssuXInWwx6+gBWwgGLoBmS4QOTwK1msG+jTTXvl1Rbn/UPd5/UicRxzk0w3tu21p7XRI/IJl6lI8pIyooql4Ubnv3LSpiFfQCtwNotLSop4n2xvSDj3lo0V9Wzmgph3kB0nar3U63uBDjbAFaACxgAyHIAnGI0wvP0ySLY6MIdjSRVX823GrCQnBUYYcG39JGJjSD4+6UUUtVn0+qn6NWtm0GMbLuKZR+W/X/HFrtNavIEdb7Sp/Un8StNBowHksr0pHKwWqL6FEPuuABF+2PbW+wcgzvqfHersjx5GAhUHlrwtDUq4Ugi3rRyepJ87d1u9hr8/whCEbxsDc63EioMC7QQiPj9W6/z/3B/hCwDPS22KjEe23fmumHUfoE8siOZe8Nrpa4EJPAU8v222iuibTzAkUCF/aq2UiR8OWMoqd832Mv3j/js7U0UmmaDrJhfziIE/SAJm18diiFgGWgAWu2cAHrO8FyftQOjM4AXvwQrjQ+RokY9CiwTeMIy0MD29x9vRoOPQmugdIggubI6bDp3M9Rey9JvLjopNTD1ZJ8QqK6cp7k4ZCCDhta0YqqaUAO+oKKwQPvEX3zZffaPzdly2GZZ8jCJEkGgwFqNtI4CvVgXTe2cGqDOFwj4SgoDXqz2Lp0c/3bHcGBGtlmg9h3mzVPslrcfbJNcny9RBmlwigaVq+MTrLR0e6SZEdKmRJVb2VkBBeIuL3H9Z/22Ps96oEXZWsnBkWRzMz3rDRR2+A1GUkZeVLGiNwK7/BiMZrC2zDCncGtqYKjw8AIUa22EIzD0w1wxjncBdjR4zihheofrEpyeO6RlhxwhF8LKzHh38/hiwjIEIPXpyOEwPuzBmjjRZfgV2vCSGkBkWOE8EBKnGQFOt2Ms/y+bcxyIw0WZ9GEmLRJQjfWISdGYChE/U0e+eofCcJORoiyEWv2mLJTlK50fZIrJFacXSmLZfS8zIQ3U9SaKltLR+mmfnopnfs8PHwoMSM1IUcE7SFqkcZ8temkN7lFC1Ot6Cnf/5hvvf89pmi4ePN101PdwuKXPGdM4YyNpe/GuqO9Ktbc6nGPC9ymturBut5U8eQC4dB1Ad3IyR3q1O/d2MkqaJENFX5d+HWx0QXU2ZC349P4m0ktR4mJophEG0jViaKpXJmopQQWpVUte0USR2r6Umo98XYcYpu7TExBl+PnkMHBNv3207/7klnaG+e+6He7Xd3q6KQtpM7zsre81F8+ru1wpoVnwPUjcqrBgvUQUdBBhKKTFWEmNouTbXrL/T2W50Z2+p4SQ9fIrY4+Pm6bT1Z4auRWzdziJOmSTgei+o/QNbnYG+2dJKFsjBd+e6mIqPi6EvFM+jNJ96cGyS07nnIlJ7UoVJRECl2Ls+JPfuOpD7poYe3QtYOV44XHd8PhlbVMpmbmD07N7DEkTqyscjs8UmxDJLgsYAGXnjK7eUp22jRaaAJrTyM7bZ5o/UK/SUxqCfltceVFfXQAFlQCayHg1ljAVkxI/UnN44LqNVlJuK9z3gnrVYCcbRUAABAASURBVObVWlp0qDzi/Dd8S9PMD9LMLwuFy24+qZmTj09OwTgl51aP3txKPA2y5/7CDz31vz5mjxr2+4ulGQqhcyOOrRZH14oy7s6ddzGyCqBDbCsBhUmFomoVhAfJFuKUgUMANAcLgoDeEdixmUmpMyE+4aCeqnuYBuutbwJDxt3hEYMFVYSXOk5BaAhYANFMtdPmPz/o+kHih6LqV+RVXJLOCrEml88t1Tf6c9lg9udp7lk0RRT328VpXAYnpqBz5KSe3ndw9fjxTjueEvSTT3rwc37y++8xQ3vkQA8XdZklSpOO13J789L4Krg+XrXkwyjUg3BPJZh4bi4Idrdt0bedQdY3se0D3lZFgZStDkEjAbsOThDw3htii55zxc1W0LTwLSEkKUvSoEKWi35P+1jJ1iPjuV+M9j6lmNpjBd6B5ITbUdQ4PUxMQSElrsUkoum95x4+fFQaPCPRo+934LW//WM/870PvjAdmCNX+/6JqVhNtdtxEvEo1Ds5FoHLpUGwewrsxkzUVw4cZUdM7AYWmEYm7tBc0LjUVcGmPK6Se+OkcBbcIgQg2lh9cfEdaTRyS3AUubXLe2+ykac4J90nt+JMbmw7Ehd34wfZ8x+mFp6ddH8pThcUIfkWyMzT7fgvGDcdcFJgYgpmJdZBWsvM4aX+3gMHtJbZ8lHh+jPU/7HHPOjvXvrLf/w7z/mOB96nd+zmwzdeafNeOMBomIK3LkIwiPWCk//YmKp6/p18q7e7BZxgIztv0BPdgvfIPHZHLW2ctd8Qo+hOTHmCzKIrj2X5YlEUWsxFsw+IDz5G7n0mzT6UpKRSK1znbHW7OFRiJ03vrO7EFGxFUhFNpfrAXAeCSLZm95HsEHUc7lzz/OEX6Zc9/VGf+LNnfPD5P/j/fuCSb730/MvOnz9vSiJHW8VSx6ws6Pxg27eIQFsIpiOr95CwM7qMhsf32SOP6t54WB9cyqr3dYOSBEUYeYlvsy8E4Q1VJmxJ1hAvRYgzWAMYjsNK9LFCKFFBXjRBo7eGm60gu443gnGlcKVylyt/cZ4fLGWufKSGXplS2RkSeSNe+kYwp43gOtNISRiMYelLU61y0gnlhPDVC8yWpZYVbcbJDiNkqxHMWyNrsw/pzX1Ptu+X1AV/kl78GrroVXTgBTTzdEnzhDd+mjAPNHpdrCRmUOwsrXZSW+6k8npdgSlWmOeqW61W66KLLnrgAx/44p9+1J8984l///wffetLfvZdf/zMd/3xL77txT/zxhf8xPv+71MbedVLn/H2v/pfr/+TZ7/0ec86f4ZmE4rJtXF1WD9I04fHMjCK1wV0I5ypDXbUwiSDprhoQ/T3/Ko/77foXn8sL/grusdf0b1f7u/558Ul/x9d9O5GxMXvaIQufk8j8p7vakRf8u/6kk9E9/podO8P63t9MLo3+JC+17+oe76zEbrkPTti6tzf6Z7znPa+n4rmv4um7k1py2u3k/8fDh6mU2BvZwpKiS+7d9W1mrTWU1NTabGWmn7bDbtUAZG6YYVZTZvYSzRHNEN0wYyMiqHKVsrVE2Tziee0kRO0WUzcZ4cFTS3Hq2uiUG2D26G9lOOFxYxwe2LXEpZuzYZLpWiCvGnGWmpCOpKehBvhKXyV1nTUSD+KdwTRQaL9nhYsTRvfKkhkVBR0yw3VDsfu9lffcQpaa7EKIgVhofM8x52EMcbHU153vGwBJ1qWWsanALoR5XFdy0XRU8rLCD8RtqOpWVLxbZyKx2yMqgQx8jYbXL4a2VxzPRIarAvvi+QwtVd8TCWeyGSVXIUse9IXmpoRrmjCyPB/q3FroYVpJCKjN1DOrENdKhtp4xqyE4bRYKizUuVOlEI4hVcblKZofn047riPHacgMo97BxFFUZIkWAWhLREoPRWOYB0aVoIUVpCoUA1QtUmKUtwJWaezgkqKegV2o+YNmQFQBguCgG4EFW4HaAp7wQKICkOuxKcgJ4iArE7UEZlGPMWNEOHUGhAkGyFfHUtUBy0FARwdNUmYqJlSip0QUW9EjlRXRMqRMmic7vgNg7Kzg2L9G9sBEaSgLno6X4uLtaRcS0wvglv2tRlEtmyERFIa8kJbXHCUslFkBckEo0FbbSEzgphQu3qv0fS+Y0J1IjQIUMy2CuBx06fZHhp0REG6eiIgTZXoOhUXtpGkxIk1oNFCE6qkRnTpVFEokykL8ADkq2oFWTloxOhsR4h8n8j3UD5NRYtyuf61wjcLI3DHIm/f4XAXCKop8tUdITRFEcXxOtBaVw/2QijpGvHeOy+s9QaLJ1EiCV3xZsvubCRHlS6jin7yNirfudk4BBrmnYupFsVFLtesvIGSYyRvJHmzEUe9UI1Ur3mlabCqoEZwD9ZMTnIE0h8J4gV5fC3Iy3YjTqQ7QikCIqLqWxVT9fwbO4q3ngAeklNs5U7b4zs/LHtSSlgAgWtxJhIwFMlgxFCmmWoBK5JGyiJLIiQoYeHD0qIIVwGXbtGdjeSo5x9tteEb3chW+3BZyD+4rWN/RDf8jr/iV93Vz6Crfoa+/gy6/Of1Fc8U1z66EX/VtzZCVz2kkeLyBzRirngosN94mL3iYfYbj3Df+Db3jce6y/+LtkUzfqh3gtfLVq9a2TOyX4hhTnlGZkAYMZz0HcoWc97cjziOkXDIvLHilKq3SNUrQKI2EQRHkFuNVP8AW6jQjiCKtFQSrTp83Z3DRdp6jxGxHmsA8AUxVNIIIW7139IKKutIQmMNCDfh3/nVGl9vedQ+qQeTPJwmKxHNExaNTpuiWapuH/aQWFgHRRsI2tcIuYONxOr8RpRF+3tJXKzctHIHpYkH0ao8+AxScSNStHaEoFlF04q6mjoxtRJKUorbhPUQU3DbnMIa8hS2dddqKqzKtdP2TcFa+d2yYQTuTsGGQblVCFnVSKiEUtykIftGIoTvFtscgTM+BUdTvwOzzXGpVcPNQCOjKqO0w+FHzpYGNXfElo2dTYVnTgpOmr/TPhuN+eeI+zNa/7gLSMQt4Dp3280jcOak4Oa+jyJbzHpj0WinU2ZwCLQFCyC2glN2k8WOjWzV1NlVdsakYOM8IXj6p6N5FcShQf3ocLegXvNuXR+BMyAF69294/WkrAo9QYWg7xa3YwR2XQo6/PYqydi8+ncllNu8L31GZU+QmYAT1IB0RSPk8mb4Xx9usoJUM9KI6gf+UkojRfXrrGJBK1LPy3ivjQZOrUjXkcWUHPSpteaS1WG8tqIqekk/T9dspyfKbxIqF9G1wjtRHvAWP1As53RcVP3Hy9HSe7wHxctRb3ERxytTOtu2XZeCu26AMfGT4L6idCTWl0N1ibOHbPFVXWhtz8VvPqRutPFhOjYtl/a3Vs+fye85U96zm52XDOdVr+ujL5JvU3m+s0PjrvZUajkTRcmoybuEOQtSsPlebcezh0xqZHsNrecfKgtt/SqVQ1G2yQgvDg2Tftm5xM+XtMfRXk0LEc04Sk+QvNb6r5bya2QjMvukL4Q6Iakk0RJSoaW7CPJMOU/M8Y64I86LU5YIHePDQWR0taQZRZeQRxpdX+pSt78jnf5Fcf7f0rmvoAN/S3v/mub/zM3+YT79omzqdxwdMD4nsUpxqpJ5ISPrclx3ucG7gj1jUnDiZAhPjUzcYUIB59Mm6ydsyDtuCOUQsAACP2QrmiOZkj7i4ihuf3/U/UXq/NdBcv4gOtCPuoM4yTt7xMK9k3Mf1LnwYWnrR8qkU6ibSOLiez4JTb6H28KqqbvG3xmTgpjgHXEHTB/3BweCgGVSf46nolRXZ0kupx9PU8+h6DKfUFwmUUmRodhS7Ei4DuFO0d6L5p+mug8tomlvFJWSXCnIKUI60l1kO2NScPJ8OKJGJu/RVII02incDPYKotJFbN2xTBfUfjh1nkxR18dUiDUtKJIUK9KKhBjt4SNyHUrPjae/P04fUwjl/bUkhsp3fB6NatwlzFmQgrtinqrk446Uh6xflPrcKHkiJffH+leqHlHmdelVXoheRr2BGGaShgpRKhRR/OA4eYzX0qhrSWXku3mGLxU3d/bbXZeCqYnJYGJuJCwWxisryTgjnPSiEeVG/93DJkuEWWzEEjUgpBUCr/pGUClG4MZOYAlrZOPfHUqPvuHSiaePCvKzsb9s6HI1/V8oXvWO4qKbEF4uRoKSmLopddvUSolagtKYYqyIkaHpx2fykoi+req1WIxjV+I6boSihSya6hWZyLMZEg4nRGfbJnfdCUlPgpSYIbwlpvVNVDOzrk/XBx5EuOkNccvCxvFtWuGsHLSihxBOg9qEAVZEWAypebOCPJWom6b3Mngu9l1C4qkM3zgSgmzpndERIf0sGo40nXUbRmj3nZNACp7nRT566pQYfUIKCleJzZYmbMikHXHrZm5n/qER5axa6qTfQ1jBvXbCOEnkseqhrAFLWPQzZGraelgpj2ERJUp8XHinSGqkILk8qVLQFM5Su93QxBkekrut/360CkbqEuPz9b55rAi2SkfvG+x6pc0fjpC4DWyuuRHh9gkH8RzykzdUakaaUq5Q8hASfL3HOjb0uERzi5ssjmQoRwpScokRy0QtIk0q96QIWOPwylpLEsJSROn0pgbO6EDVeVmZ3fRnkTQSj433caIg3rwbzaYnXLIa4EqbrSM0tRnOs0Y7agNZh09YALFjhCF0svphFx3mvYVHX1huZU31ax5X9dKSqOqiHQ8pSKZCIf/20Fm37cIU9NXgy0scDavRxv0QkRC+eclBJtEp25BzAM2xhQDQO4KcUS6i8lPkDZ5BJEnlUykn5iASTVGMpKX8y6hJYpl84U3isTA63CN6ibLSEXV1vJ9oL511265LQU/OCyJxjh3dpBO2Ks8sbV7P1iOo0QimrYEt8olbQYUggubItqw1ynbXsncT5YpyYbX2RGFFp/ENyRlRC2k2yD6hHZ56Fwl3IHmr+tY5RxK/FguH64HoxMlB7zvj+5/5/q5LQVclFpGMCTc/6+Pr1z938oHsaWSbbWDfbdYcr+a8dOkg/xQJfAF6xDcR1dV5vCL7ypOgCLeNWf5VTR0SK+SwCsbYD+solkIhlMEqKFpCzzrPO51VdteloMeoY6Aj6ia/MKSk9AOiebKKcC0G5Krhx9UJU1SBy1RJvgFBuAw2IZ0Qdh0yYgRaEGQZKfAIa5XAE6lVZCsBvQkhykYomtNyab9doCNvpL7QkvKEDuOJGA9XWMzQU0O4u6tu+XAqthCIZ9f5ld9s58fsEF24L6kFoVemBquUzNmWE3YqpohmB3bhXr1dN1108tuuOydNghTBUPpAhVdlasX5w2TbtL6NOlwtMOwjW1lsst7fxu0jKox28hti5FG117q6fR+SXNv4G0r7D371nwmJZGhervjkiI1vKqLrMn1drg5ZuUbSkYjJHae1z5aD64UfaI307BP1deK86FK8qkxqs6SICmo/Rskn6dvXo92912hGd1MXY8JbmR5hsNPYsZyEAAAOgElEQVRLo6mH+bhjaYUs1gp0FWz0FVnIIIEa2ai48dn8OTH/0GbzHrcVjW4gUr6YLgY39AavyQevouxwXM45wpPEQUkXKrowooOapgirrSNae3O+8i/l4HJFfVElZelkLmNTCEEoLXp4KZO1LqPuD5ObTgkJelsdONPK5W7rsCDMg8upNIpE64Fx/Ggh9pO8nnDxZShsmCIQ3G0LpBeo1jvP+1SJiAjY8KtPuFtQ1Wj4qzoUZZFuJ/aALm9w5s/dyl/TkStVMVCl1DnFGd76EQ2w+H2YVl9N/Q+J/CvKrircCFCEdVFQ5L0yeojVkPzN0XQsu/89jy8yEVI7bjjkGR7adSmItUH4tqfMUp/kgk6erNNHlvEqlhYiUYFEJGyY6wpkz44I11nshVZgAcQ6nHNwIGB3jsn3OatIZlrq1M2pYV7035+v/W5+4g/t4p/6lTfQyjto6ZW0+Ifl4h9li39ExdWxHKSqTa5DLiGVCtk2eUqyNTRHnaZo4VHtuUcWkkpaJfxivvMu7fI95C7sn/RaVoteVvVNz1PnEVn7gVWA6r11JHxFVWlnf8g5gH3YQlQg50ClqJ6mqNMIV9xsbXS9LfZT/57VyyW5FHulzJqXH0Pmlct/ny3/Ybb6omLlr8zqh9Ta4XRNEx5MVEKqS5Q6aLL4EpJJYjvruqXpfidNPVUkWlHuhwluEzcf8UyP1Cd1V5yLF3iMcNq2IjtHnvDW1nUu9O1nEPKvWv+4w26jr64xP7YO8r6oE0TQVWQjEW8VrAq29SdUX6Cia5FT5PF2PVPUid15Sa7SwiZ5poq+NIW2kfT4qeM8kglZJKJ2yhs5NHbF2n5EMhLD9vTj9N6nU3xfIonHsbZKjNdo+yyDZ3QXnZSj0otM2ohKLIUY/OuNilX8yPEuIlMJiQjGS3bkj+fZyeUfDi2yb1at62j2X0n3KLu3zw+SS4VbIKFITEm5PxLnarlA2lF8iNKvk9BF6TNjnLJODnO7ZE1PoFQfEq2niNYjBpgijEaRkM6tQyriIGcVOL/ddT5KxBLf+ZgoJVLo2wUxzXc09c9/VW/fz/e7qVNXkjlOJqVqPoyRi1ZmQigpUklKukKYVSqXBLlmXClGSCw6Hs88VlEFOVuBS+EIQX4dX4omCMnaRKJPCDNF+X6qlvAlEeVSlIIWSZ1PNEuGqOy5ou8NRn6OxAV91zUiUpRFfpC6fR350FjdDw8ldJ+v0dzjhCAknVBEGBCZJLgU07a2M6gSBuLM6G0a97rtSzutX5bxT5PY59xVZG8m11Fyn5Itrwore16WTqak9gh1gAgLZCN3zvkW9jpDh3yyRJ2ebGcUDUvTz7Nep3DtpB91Su/lir1+Jbmc9l5G5/z9ndPLO+OoZ0wKKlohP0f6gTT9VD/z3Xn7okLHDg+f5kLpZ4VQihThDoyk14su+cadMZhbHdN3D9u0X1JS5vtNtt+ZjpZlHB8ntURDTYMySw7T/D3U7K+b2Z+3M/u2auvsKpNnzOmYc0kQ4UrUnhILP9Ka+4Wo/Z0umnLqX3y5KPrnUr5PyGUZXyPFQBn8om+9b2DSBfR0j4Mq7oNeSZ8qyhUNlXPCdES5j1yUi9WB2qOiX5qZeVl33w+5dG6tOtXT3aPd0v6Zk4KWCDdlaqmQpRfTlD5GdH9QT323pItEsuZbn/L6C3h1Rv2LKbsHuTnaZZsfHpX5QFspqSNwsyvJi1Vcmo+0O3bPf2mf86J4/29Q60G4fVCunDJql3X/NHbnzEnBiEhaQSkGo3pWFkTJZTT9YzT1cpr6FTHzLb4zbXRZ+oF3y7hN9GSb8c0bmj2tRFJJGlh7U2mvzsXRIknc9KV6/lHtAz/b3vvLNPVtlJYUOTtoqTxRCm9zTmt3dlHjZ0wKernqCbd7Le0j4YZW9CkikprmD1D3B0n9lUxfKBYeQAdWy25W0IW7aIy5Kw7PufspVeWMs/N7ac/j5Pxv0NwrpvR/o2jKy+sNJQa/GnfJtzLyeADm3c5+ewpS8I4ZpIJwAbbekvQUiZZWLSNMpvPjurearpi5kmYeruI/i8Rr4s5T4v1IT0/UyB3T3/GjmOj1Pj6h4h9pJ29qp++PO79ZTj940JXkB9Sb9tkFlsjIfkn9nORQ5uP7n73+GZOCCXVjkUhF+JVkdLOOBVCnlOyh7jTNaIpIE+FXroWLae/P0sIr1DlvVPt/yyw8cjilMn2zdUdk7lV/3smhVxle8wpdCJULGnq/Zu2KicoSL4l1Uagc5DLLxBCUMmaMjo3WRksbKdC3rYFLc4pLpawmr0unh071qFylco3KoXNuIOO1dG61e2Bl5nx9mReXfo7u8Vt04ME0SxTjf9U7P2q30W2JMyHcZHRSAnFrVEJ3je2MScEdT8f0Gs0+OJl6QbfzwU73w1HnNwbdg8vTXxFGUEk+c35oKZdkYymmtJ7zq7nolWpYxoWLLSUkUqXTSEXlgNHFUBe5Lko1oiPW2r6fFFk0INVLRH9BDs+X2SWratCL03zq3nL2Se29vz6198+n9711Zv6NO+7/XWaHszYF++X5uZutlpou0cI54pynds7/+9kL/0Oe8yK573ly4eli+ntNep9Cd4d+OLBHo+SATvZJtUByinxC+MXEeCpwKScSgkiRj8mn5NtkO8DFX3fp1bZ92HVWacbRfIsW5mnvgekL3tu94A3JuX9MB3+RFh5H3XOwn43p7m3SCJy1KRipBI+gRlKhcxMNbFTaOPbRjF34dr//sXTeD9LFP63v9WvRJc+PL/rd6IIX0tw5fnq/mVrIW3P9uLOi4kUSJzz12km/1eq32/1We9DqDlrTYNieHbZfm3df5+bfRPv+gfa/lfa+xS/8nZ//Czt1H9u5xCYHjZ41IjLSZGop08cmTcDd8bM2BWM51GKoqfr/qFIUecJ76rwQ+YBw5cQz53xB5xl5f4ofoTpPiKa+j/a9XBx4pT7ndcn5r+tc8OaZe7x1/pK3L1zytu5F/9C56C2dkW1f9A/ti94CWhDnfVfrnMfIvQ81c/fMphb6HdVr01qLjFwzomfEAEsokRTUimkupb13p9qkEZCTCs70uC+sNwOiJUGLgnLt4rhMkmEyVVKnpLSo/vWyzkjkhsqcTJHHtEGcp2mRdot0pmjNFnpmRKeIQFpEURGrIiJhW2S1MhSVRWSyxGdtytuUaZrS1I2pLV0srVSemDN9PE9f/+Xpa/rObVnIrvALVB5w+UGTd61D0q1R6xhF11N0E8UnKB5SRKQ1UUIUK8LtXgDX8EhSsgE0kJIoQMLgLQoQ0inhtLfKGe0NuQG5zDtT1RREjgivW8CdOxy7+OgYqF3cu5PoWoGroc58RCIhHZPSsXVxaVreXeDpXEsLhWxlitZ0sRQPT8QD7QrtSuTQrXG6pApL2voK57iCVRp4HXuVkmyT71jTcXmXbCwollIKaUiWXpVGDUrZP4lTOct3lWfr+cWqq0WKZQhQ9UdKJpHuCll5WPPwkIof+6YonqPWAt7DyZhkREKPE1G1WGIHJQhIyRWqAFVNVW3jT5FCAympSCP/iCSRJooERVq0I9mhu7cJIyAnxO8O3z0Cd9AI3J2Cd9BA332YSSNwdwpOGpm740R0RwzC3Sl4R4zy3cfYYgTuTsEtBufuojtiBO5OwTtilO8+xhYjcHcKbjE4dxfdESNwdwreEaN89zG2GIG7U3CLwbm76I4Ygd2TgnfE2eIYzf/xkvcoOq3cWcc9rSd1Sho/41Nw0tROirvTvE067k7jp2R2z4hGzvgUnDTKkzJtUipMqn+q4pOOO6n/d534GZOCk6bwVMXvrFSb1P+7U/CMGYFJU3imxM+YgT5tHT1jVsGdjsDdKbjTEbuz6u+6FAypw1dGu7GNuaZpK0dbMdo29rOh4qiwDPHTJPhw3Dj3mS0fnUuNMVwBNkQg4DLYBS7DEVgEAY/PnZUup+O4uy4F+SQx0CzqNgQ3C1QLQehACAYRik6r4MOxrR9oOxHUr1eraxQxjUEuOuPsrktBDC7gcayLuh4rhbu5dIsgKp9u+Oj1oyDCIAjBFgJAAxawDCKANVu4gDVsXcM9c9l1KRiGkocYFowF4YYgBEAEsIBlEAHQsADiDmbzQREB6AZbFtCANVu4DLuwIETqmoNntN2NKYghBhhWtiygQdB1UddcBxGGXVgQItCnFRxoc/sIAsRhQV3UNRchwrALC0KENSxAEPaMZtelYBhTFrAgDHHQdVHXXBMRBi4ELIC4swhHZwELuDMQIGgIuAF22XIQGkCzZRE03DOOXZeCPIKNYxqCmwX22n4QlU8r6AnAIWABC1gw5nKEg9AMXMAaljUsgMuwZsuRXW237NxuTMEwsnVR13xGIQI36CAQDNSD0KcbPi6OEkTQHIHdHBkL3mYF1AeN1RA/g9h1KSiaNiklxrrOdt6Qof7YTCDS1PypjOGIOArsJEIpC1gQTieISX1SGxvGhOGakw63++O7LgUxZGFMIeAyQbOABVwEG3QQHGSXbYjAPd3wsWABHwsCBB3EFkEUAdSEBRAA4ixj16UgRhlglIOFmASWgVBU1yF4p4vb3SseAfR/TMA9y9iNKYghxtDX4UiYziBQBxpABOCCuguNCIC4Y2g8VgjWRV1z3xABrMcsxuHsY9elIIZ4bNzrLuYGIMIWgmEXFoRIXdeDiJ9ucDg+RBBwoQELWACXCToIxBuHAsGzjN2YgmGIMQ0ALizmBkAE4IK6W2khbjPI1e4YW+8MjsguW7gAGkCAzQJBwCMAAaDPMnZ1CvJYY9zHCFOFeF3D3SWcql5hBPiMIM5WzoAUrA895oPdIOBCAxawAC4TdBAcP90WhwM4ClsIhl1YECJ1XQ9yHPbs5gxLQUwGTxIsVpo6/L5Mb2xjbrSxbZSPf26Un8pPPgb3JLTLQViOsw0ngvOqg/M96znzUvCsn5K72gnenYJ3tRnfdef7/wMAAP//LRlqawAAAAZJREFUAwBEK4TOtT+//QAAAABJRU5ErkJggg==;" parent="1" vertex="1">
          <mxGeometry x="80" y="-60" width="81.96" height="90" as="geometry" />
        </mxCell>
        <mxCell id="ixZkb0eXv8Ct4fg5er1q-2" value="qiskit_aer/backends/aer_simulator.py" style="text;html=1;align=center;verticalAlign=middle;whiteSpace=wrap;rounded=0;fillColor=#f8cecc;strokeColor=#b85450;" vertex="1" parent="1">
          <mxGeometry x="560" y="10" width="220" height="30" as="geometry" />
        </mxCell>
        <mxCell id="ixZkb0eXv8Ct4fg5er1q-4" value="qiskit_aer/backends/aerbackend.py" style="text;html=1;align=center;verticalAlign=middle;whiteSpace=wrap;rounded=0;fillColor=#f8cecc;strokeColor=#b85450;" vertex="1" parent="1">
          <mxGeometry x="80" y="230" width="220" height="30" as="geometry" />
        </mxCell>
        <mxCell id="ixZkb0eXv8Ct4fg5er1q-5" value="" style="rounded=1;whiteSpace=wrap;html=1;fillColor=none;" vertex="1" parent="1">
          <mxGeometry x="55" y="600" width="745" height="100" as="geometry" />
        </mxCell>
        <mxCell id="ixZkb0eXv8Ct4fg5er1q-8" value="" style="edgeStyle=orthogonalEdgeStyle;rounded=0;orthogonalLoop=1;jettySize=auto;html=1;" edge="1" parent="1" source="ixZkb0eXv8Ct4fg5er1q-6" target="mQlGj0gx3QQivbZpuOw8-19">
          <mxGeometry relative="1" as="geometry" />
        </mxCell>
        <mxCell id="ixZkb0eXv8Ct4fg5er1q-6" value="Defined in AerSimulator()" style="rounded=1;whiteSpace=wrap;html=1;" vertex="1" parent="1">
          <mxGeometry x="300" y="620" width="120" height="60" as="geometry" />
        </mxCell>
        <mxCell id="ixZkb0eXv8Ct4fg5er1q-9" value="qiskit_aer/backends/aer_simulator.py" style="text;html=1;align=center;verticalAlign=middle;whiteSpace=wrap;rounded=0;fillColor=#f8cecc;strokeColor=#b85450;" vertex="1" parent="1">
          <mxGeometry x="70" y="635" width="220" height="30" as="geometry" />
        </mxCell>
        <mxCell id="ixZkb0eXv8Ct4fg5er1q-16" style="edgeStyle=orthogonalEdgeStyle;rounded=0;orthogonalLoop=1;jettySize=auto;html=1;" edge="1" parent="1" source="ixZkb0eXv8Ct4fg5er1q-12" target="mQlGj0gx3QQivbZpuOw8-27">
          <mxGeometry relative="1" as="geometry">
            <Array as="points">
              <mxPoint x="410" y="805" />
              <mxPoint x="410" y="770" />
            </Array>
          </mxGeometry>
        </mxCell>
        <mxCell id="ixZkb0eXv8Ct4fg5er1q-17" style="edgeStyle=orthogonalEdgeStyle;rounded=0;orthogonalLoop=1;jettySize=auto;html=1;entryX=0;entryY=0.5;entryDx=0;entryDy=0;" edge="1" parent="1" source="ixZkb0eXv8Ct4fg5er1q-12" target="mQlGj0gx3QQivbZpuOw8-29">
          <mxGeometry relative="1" as="geometry">
            <Array as="points">
              <mxPoint x="410" y="805" />
              <mxPoint x="410" y="860" />
            </Array>
          </mxGeometry>
        </mxCell>
        <mxCell id="ixZkb0eXv8Ct4fg5er1q-12" value="call the executor function defined in cpp using the wrappers built using pybind11." style="rounded=1;whiteSpace=wrap;html=1;" vertex="1" parent="1">
          <mxGeometry x="231.83" y="740" width="145.17" height="130" as="geometry" />
        </mxCell>
        <mxCell id="ixZkb0eXv8Ct4fg5er1q-15" value="qiskit_aer/backends/backend_utils.py" style="text;html=1;align=center;verticalAlign=middle;whiteSpace=wrap;rounded=0;fillColor=#f8cecc;strokeColor=#b85450;" vertex="1" parent="1">
          <mxGeometry x="205" y="900" width="220" height="30" as="geometry" />
        </mxCell>
        <mxCell id="ixZkb0eXv8Ct4fg5er1q-19" value="qiskit_aer/backends/backend_utils.py" style="text;html=1;align=center;verticalAlign=middle;whiteSpace=wrap;rounded=0;fillColor=#f8cecc;strokeColor=#b85450;" vertex="1" parent="1">
          <mxGeometry x="120" y="1015" width="220" height="30" as="geometry" />
        </mxCell>
        <mxCell id="ixZkb0eXv8Ct4fg5er1q-20" value="src/controllers/controller_execute.hpp" style="text;html=1;align=center;verticalAlign=middle;whiteSpace=wrap;rounded=0;fillColor=#f8cecc;strokeColor=#b85450;" vertex="1" parent="1">
          <mxGeometry x="130.17000000000002" y="1145" width="220" height="30" as="geometry" />
        </mxCell>
        <mxCell id="ixZkb0eXv8Ct4fg5er1q-21" value="" style="rounded=1;whiteSpace=wrap;html=1;fillColor=none;" vertex="1" parent="1">
          <mxGeometry x="64.5" y="970" width="745" height="120" as="geometry" />
        </mxCell>
        <mxCell id="ixZkb0eXv8Ct4fg5er1q-24" value="src/controllers/aer_controller.hpp" style="text;html=1;align=center;verticalAlign=middle;whiteSpace=wrap;rounded=0;fillColor=#f8cecc;strokeColor=#b85450;" vertex="1" parent="1">
          <mxGeometry x="560" y="1380" width="220" height="30" as="geometry" />
        </mxCell>
        <mxCell id="ixZkb0eXv8Ct4fg5er1q-31" style="edgeStyle=orthogonalEdgeStyle;rounded=0;orthogonalLoop=1;jettySize=auto;html=1;" edge="1" parent="1" source="ixZkb0eXv8Ct4fg5er1q-25" target="ixZkb0eXv8Ct4fg5er1q-30">
          <mxGeometry relative="1" as="geometry" />
        </mxCell>
        <mxCell id="ixZkb0eXv8Ct4fg5er1q-25" value="make_circuit_executor()" style="rounded=1;whiteSpace=wrap;html=1;" vertex="1" parent="1">
          <mxGeometry x="100.83000000000006" y="1450" width="158.34" height="60" as="geometry" />
        </mxCell>
        <mxCell id="ixZkb0eXv8Ct4fg5er1q-26" style="edgeStyle=orthogonalEdgeStyle;rounded=0;orthogonalLoop=1;jettySize=auto;html=1;exitX=1;exitY=0.75;exitDx=0;exitDy=0;entryX=0.75;entryY=0;entryDx=0;entryDy=0;" edge="1" parent="1" source="ixZkb0eXv8Ct4fg5er1q-25" target="ixZkb0eXv8Ct4fg5er1q-25">
          <mxGeometry relative="1" as="geometry">
            <Array as="points">
              <mxPoint x="259" y="1470" />
              <mxPoint x="310" y="1470" />
              <mxPoint x="310" y="1410" />
              <mxPoint x="220" y="1410" />
            </Array>
          </mxGeometry>
        </mxCell>
        <mxCell id="ixZkb0eXv8Ct4fg5er1q-29" value="Loop for each circuit and simulation method defined" style="text;html=1;align=center;verticalAlign=middle;resizable=0;points=[];autosize=1;strokeColor=none;fillColor=none;" vertex="1" parent="1">
          <mxGeometry x="140" y="1520" width="300" height="30" as="geometry" />
        </mxCell>
        <mxCell id="ixZkb0eXv8Ct4fg5er1q-47" style="edgeStyle=orthogonalEdgeStyle;rounded=0;orthogonalLoop=1;jettySize=auto;html=1;exitX=0.75;exitY=1;exitDx=0;exitDy=0;" edge="1" parent="1">
          <mxGeometry relative="1" as="geometry">
            <mxPoint x="475.9650000000001" y="1510" as="sourcePoint" />
            <mxPoint x="477.04000000000013" y="1650" as="targetPoint" />
          </mxGeometry>
        </mxCell>
        <mxCell id="ixZkb0eXv8Ct4fg5er1q-30" value="executor[i]-&amp;gt;run_cricuit()" style="rounded=1;whiteSpace=wrap;html=1;" vertex="1" parent="1">
          <mxGeometry x="350.17" y="1450" width="158.34" height="60" as="geometry" />
        </mxCell>
        <mxCell id="ixZkb0eXv8Ct4fg5er1q-33" style="edgeStyle=orthogonalEdgeStyle;rounded=0;orthogonalLoop=1;jettySize=auto;html=1;exitX=1;exitY=0.5;exitDx=0;exitDy=0;entryX=0.5;entryY=0;entryDx=0;entryDy=0;" edge="1" parent="1" source="ixZkb0eXv8Ct4fg5er1q-30" target="ixZkb0eXv8Ct4fg5er1q-30">
          <mxGeometry relative="1" as="geometry">
            <Array as="points">
              <mxPoint x="530" y="1480" />
              <mxPoint x="530" y="1410" />
              <mxPoint x="429" y="1410" />
            </Array>
          </mxGeometry>
        </mxCell>
        <mxCell id="ixZkb0eXv8Ct4fg5er1q-54" style="edgeStyle=orthogonalEdgeStyle;rounded=0;orthogonalLoop=1;jettySize=auto;html=1;exitX=0.5;exitY=1;exitDx=0;exitDy=0;entryX=0.5;entryY=0;entryDx=0;entryDy=0;" edge="1" parent="1" source="ixZkb0eXv8Ct4fg5er1q-37" target="ixZkb0eXv8Ct4fg5er1q-53">
          <mxGeometry relative="1" as="geometry">
            <Array as="points">
              <mxPoint x="478" y="1710" />
            </Array>
          </mxGeometry>
        </mxCell>
        <mxCell id="ixZkb0eXv8Ct4fg5er1q-37" value="CircuitExecutor::Executor&amp;lt;Stabilizer::State&amp;gt;" style="rounded=1;whiteSpace=wrap;html=1;" vertex="1" parent="1">
          <mxGeometry x="360" y="1650" width="260" height="60" as="geometry" />
        </mxCell>
        <mxCell id="ixZkb0eXv8Ct4fg5er1q-39" value="" style="edgeStyle=orthogonalEdgeStyle;rounded=0;orthogonalLoop=1;jettySize=auto;html=1;" edge="1" parent="1" source="ixZkb0eXv8Ct4fg5er1q-38" target="ixZkb0eXv8Ct4fg5er1q-37">
          <mxGeometry relative="1" as="geometry" />
        </mxCell>
        <mxCell id="ixZkb0eXv8Ct4fg5er1q-38" value="Stabilizer::State is defined as state_t afterwards as the class template" style="rounded=1;whiteSpace=wrap;html=1;" vertex="1" parent="1">
          <mxGeometry x="110" y="1650" width="194.5" height="60" as="geometry" />
        </mxCell>
        <mxCell id="ixZkb0eXv8Ct4fg5er1q-59" style="edgeStyle=orthogonalEdgeStyle;rounded=0;orthogonalLoop=1;jettySize=auto;html=1;exitX=0.5;exitY=1;exitDx=0;exitDy=0;entryX=0.5;entryY=0;entryDx=0;entryDy=0;" edge="1" parent="1" source="ixZkb0eXv8Ct4fg5er1q-41" target="ixZkb0eXv8Ct4fg5er1q-58">
          <mxGeometry relative="1" as="geometry" />
        </mxCell>
        <mxCell id="ixZkb0eXv8Ct4fg5er1q-41" value="RngEngine::set_seed()" style="rounded=1;whiteSpace=wrap;html=1;" vertex="1" parent="1">
          <mxGeometry x="347.5" y="1955" width="260" height="60" as="geometry" />
        </mxCell>
        <mxCell id="ixZkb0eXv8Ct4fg5er1q-44" style="edgeStyle=orthogonalEdgeStyle;rounded=0;orthogonalLoop=1;jettySize=auto;html=1;entryX=0;entryY=0.5;entryDx=0;entryDy=0;" edge="1" parent="1" source="ixZkb0eXv8Ct4fg5er1q-43" target="ixZkb0eXv8Ct4fg5er1q-41">
          <mxGeometry relative="1" as="geometry">
            <mxPoint x="342.25" y="1985" as="targetPoint" />
          </mxGeometry>
        </mxCell>
        <mxCell id="ixZkb0eXv8Ct4fg5er1q-43" value="Update circuit seed" style="rounded=1;whiteSpace=wrap;html=1;" vertex="1" parent="1">
          <mxGeometry x="120" y="1955" width="144.5" height="60" as="geometry" />
        </mxCell>
        <mxCell id="ixZkb0eXv8Ct4fg5er1q-48" value="src/simulators/circuit_executor.hpp" style="text;html=1;align=center;verticalAlign=middle;whiteSpace=wrap;rounded=0;fillColor=#f8cecc;strokeColor=#b85450;" vertex="1" parent="1">
          <mxGeometry x="576.66" y="1850" width="220" height="30" as="geometry" />
        </mxCell>
        <mxCell id="ixZkb0eXv8Ct4fg5er1q-50" value="src/framework/rng.hpp" style="text;html=1;align=center;verticalAlign=middle;whiteSpace=wrap;rounded=0;fillColor=#f8cecc;strokeColor=#b85450;" vertex="1" parent="1">
          <mxGeometry x="532.25" y="2035" width="220" height="30" as="geometry" />
        </mxCell>
        <mxCell id="ixZkb0eXv8Ct4fg5er1q-56" style="edgeStyle=orthogonalEdgeStyle;rounded=0;orthogonalLoop=1;jettySize=auto;html=1;exitX=0.5;exitY=1;exitDx=0;exitDy=0;entryX=0.5;entryY=0;entryDx=0;entryDy=0;" edge="1" parent="1" source="ixZkb0eXv8Ct4fg5er1q-53" target="ixZkb0eXv8Ct4fg5er1q-41">
          <mxGeometry relative="1" as="geometry" />
        </mxCell>
        <mxCell id="ixZkb0eXv8Ct4fg5er1q-53" value="run_circuit()" style="rounded=1;whiteSpace=wrap;html=1;" vertex="1" parent="1">
          <mxGeometry x="347.5" y="1760" width="260" height="60" as="geometry" />
        </mxCell>
        <mxCell id="ixZkb0eXv8Ct4fg5er1q-61" value="" style="edgeStyle=orthogonalEdgeStyle;rounded=0;orthogonalLoop=1;jettySize=auto;html=1;" edge="1" parent="1" source="ixZkb0eXv8Ct4fg5er1q-58" target="ixZkb0eXv8Ct4fg5er1q-60">
          <mxGeometry relative="1" as="geometry" />
        </mxCell>
        <mxCell id="ixZkb0eXv8Ct4fg5er1q-58" value="run_circuit_with_sampling()" style="rounded=1;whiteSpace=wrap;html=1;" vertex="1" parent="1">
          <mxGeometry x="388.75" y="2130" width="177.5" height="60" as="geometry" />
        </mxCell>
        <mxCell id="ixZkb0eXv8Ct4fg5er1q-68" style="edgeStyle=orthogonalEdgeStyle;rounded=0;orthogonalLoop=1;jettySize=auto;html=1;exitX=0.5;exitY=1;exitDx=0;exitDy=0;entryX=0.5;entryY=0;entryDx=0;entryDy=0;" edge="1" parent="1" source="ixZkb0eXv8Ct4fg5er1q-60" target="ixZkb0eXv8Ct4fg5er1q-66">
          <mxGeometry relative="1" as="geometry" />
        </mxCell>
        <mxCell id="ixZkb0eXv8Ct4fg5er1q-60" value="run_circuit_lambda()" style="rounded=1;whiteSpace=wrap;html=1;" vertex="1" parent="1">
          <mxGeometry x="388.75" y="2220" width="177.5" height="60" as="geometry" />
        </mxCell>
        <mxCell id="ixZkb0eXv8Ct4fg5er1q-63" value="" style="edgeStyle=orthogonalEdgeStyle;rounded=0;orthogonalLoop=1;jettySize=auto;html=1;" edge="1" parent="1" source="ixZkb0eXv8Ct4fg5er1q-62" target="ixZkb0eXv8Ct4fg5er1q-60">
          <mxGeometry relative="1" as="geometry" />
        </mxCell>
        <mxCell id="ixZkb0eXv8Ct4fg5er1q-62" value="set the seed generated previously and run each shot" style="rounded=1;whiteSpace=wrap;html=1;" vertex="1" parent="1">
          <mxGeometry x="120" y="2220" width="197.75" height="60" as="geometry" />
        </mxCell>
        <mxCell id="ixZkb0eXv8Ct4fg5er1q-70" value="" style="edgeStyle=orthogonalEdgeStyle;rounded=0;orthogonalLoop=1;jettySize=auto;html=1;" edge="1" parent="1" source="ixZkb0eXv8Ct4fg5er1q-66" target="ixZkb0eXv8Ct4fg5er1q-69">
          <mxGeometry relative="1" as="geometry" />
        </mxCell>
        <mxCell id="ixZkb0eXv8Ct4fg5er1q-66" value="measure_sampler()" style="rounded=1;whiteSpace=wrap;html=1;" vertex="1" parent="1">
          <mxGeometry x="388.75" y="2330" width="177.5" height="60" as="geometry" />
        </mxCell>
        <mxCell id="ixZkb0eXv8Ct4fg5er1q-67" value="src/simulators/circuit_executor.hpp" style="text;html=1;align=center;verticalAlign=middle;whiteSpace=wrap;rounded=0;fillColor=#f8cecc;strokeColor=#b85450;" vertex="1" parent="1">
          <mxGeometry x="100.83000000000004" y="2145" width="220" height="30" as="geometry" />
        </mxCell>
        <mxCell id="ixZkb0eXv8Ct4fg5er1q-74" style="edgeStyle=orthogonalEdgeStyle;rounded=0;orthogonalLoop=1;jettySize=auto;html=1;exitX=0.5;exitY=1;exitDx=0;exitDy=0;" edge="1" parent="1" source="ixZkb0eXv8Ct4fg5er1q-69" target="ixZkb0eXv8Ct4fg5er1q-73">
          <mxGeometry relative="1" as="geometry" />
        </mxCell>
        <mxCell id="ixZkb0eXv8Ct4fg5er1q-69" value="Stabilizer::State::sample_measure()" style="rounded=1;whiteSpace=wrap;html=1;" vertex="1" parent="1">
          <mxGeometry x="372.75" y="2430" width="209.5" height="60" as="geometry" />
        </mxCell>
        <mxCell id="ixZkb0eXv8Ct4fg5er1q-71" style="edgeStyle=orthogonalEdgeStyle;rounded=0;orthogonalLoop=1;jettySize=auto;html=1;exitX=0.75;exitY=1;exitDx=0;exitDy=0;entryX=1;entryY=0.5;entryDx=0;entryDy=0;" edge="1" parent="1" source="ixZkb0eXv8Ct4fg5er1q-69" target="ixZkb0eXv8Ct4fg5er1q-69">
          <mxGeometry relative="1" as="geometry" />
        </mxCell>
        <mxCell id="ixZkb0eXv8Ct4fg5er1q-72" value="Loop for each shot" style="text;html=1;align=center;verticalAlign=middle;resizable=0;points=[];autosize=1;strokeColor=none;fillColor=none;" vertex="1" parent="1">
          <mxGeometry x="582.25" y="2430" width="120" height="30" as="geometry" />
        </mxCell>
        <mxCell id="ixZkb0eXv8Ct4fg5er1q-76" value="" style="edgeStyle=orthogonalEdgeStyle;rounded=0;orthogonalLoop=1;jettySize=auto;html=1;" edge="1" parent="1" source="ixZkb0eXv8Ct4fg5er1q-73" target="ixZkb0eXv8Ct4fg5er1q-75">
          <mxGeometry relative="1" as="geometry" />
        </mxCell>
        <mxCell id="ixZkb0eXv8Ct4fg5er1q-73" value="apply_measure_and_update()" style="rounded=1;whiteSpace=wrap;html=1;" vertex="1" parent="1">
          <mxGeometry x="372.75" y="2540" width="209.5" height="60" as="geometry" />
        </mxCell>
        <mxCell id="ixZkb0eXv8Ct4fg5er1q-78" value="" style="edgeStyle=orthogonalEdgeStyle;rounded=0;orthogonalLoop=1;jettySize=auto;html=1;" edge="1" parent="1" source="ixZkb0eXv8Ct4fg5er1q-75" target="ixZkb0eXv8Ct4fg5er1q-77">
          <mxGeometry relative="1" as="geometry" />
        </mxCell>
        <mxCell id="ixZkb0eXv8Ct4fg5er1q-75" value="rng.rand_int({0.5,0.5})" style="rounded=1;whiteSpace=wrap;html=1;" vertex="1" parent="1">
          <mxGeometry x="397.19" y="2680" width="209.5" height="60" as="geometry" />
        </mxCell>
        <mxCell id="ixZkb0eXv8Ct4fg5er1q-77" value="std::discrete_distribution&amp;lt;size_t&amp;gt;(probs.begin(), probs.end())(rng);" style="rounded=1;whiteSpace=wrap;html=1;" vertex="1" parent="1">
          <mxGeometry x="313.88" y="2770" width="376.12" height="60" as="geometry" />
        </mxCell>
        <mxCell id="ixZkb0eXv8Ct4fg5er1q-80" value="" style="edgeStyle=orthogonalEdgeStyle;rounded=0;orthogonalLoop=1;jettySize=auto;html=1;" edge="1" parent="1" source="ixZkb0eXv8Ct4fg5er1q-79" target="ixZkb0eXv8Ct4fg5er1q-77">
          <mxGeometry relative="1" as="geometry" />
        </mxCell>
        <mxCell id="ixZkb0eXv8Ct4fg5er1q-79" value="std::mt19937_64 rng;" style="rounded=1;whiteSpace=wrap;html=1;" vertex="1" parent="1">
          <mxGeometry x="120" y="2770" width="137.25" height="60" as="geometry" />
        </mxCell>
        <mxCell id="ixZkb0eXv8Ct4fg5er1q-82" value="" style="rounded=1;whiteSpace=wrap;html=1;fillColor=none;" vertex="1" parent="1">
          <mxGeometry x="53" y="2420" width="745" height="200" as="geometry" />
        </mxCell>
        <mxCell id="ixZkb0eXv8Ct4fg5er1q-83" value="src/simulators/stabilizer/stabilizer_state.hpp" style="text;html=1;align=center;verticalAlign=middle;whiteSpace=wrap;rounded=0;fillColor=#f8cecc;strokeColor=#b85450;" vertex="1" parent="1">
          <mxGeometry x="80" y="2500" width="262.75" height="30" as="geometry" />
        </mxCell>
        <mxCell id="ixZkb0eXv8Ct4fg5er1q-85" value="src/framework/rng.hpp" style="text;html=1;align=center;verticalAlign=middle;whiteSpace=wrap;rounded=0;fillColor=#f8cecc;strokeColor=#b85450;" vertex="1" parent="1">
          <mxGeometry x="97.25" y="2695" width="220" height="30" as="geometry" />
        </mxCell>
        <mxCell id="Wq5V5O-XcryUxgMb054s-23" value="" style="shape=image;verticalLabelPosition=bottom;labelBackgroundColor=default;verticalAlign=top;aspect=fixed;imageAspect=0;image=data:image/png,iVBORw0KGgoAAAANSUhEUgAAANQAAADuCAIAAADOXb6EAAAQAElEQVR4AeydC5wU1ZX/a3qeDAPIEF4SEBJRiERlfeNG1yjq/tUVIz5iMIusIOL+FVmN6x/HF+ZvjNn4SBSBrBBQRB4CAq7yFA0gBAIiAoM8h8AMM8wAw0zPMM/93r5D09Ovqe6uulXVU3wuNVW3zr33nHN/fc+v7r1d7Wl0/+n2wL4jlZ/+7cikpftfmrdrzNQdIydvJXHCJZncQkB3Za5go0dz/7XkgaKyimmrCkZM2vr07F0frC9au+fEgdLq2tpaWY4TLsnkFgKIIUwRedc9RvGAC74oztGqaupA0uMzd3+efxy5dpmpGakpJM6DEpkkBMhHmCIUpDiXborkARd8kTyjfba5+OF3t4MkIAWw0jwpEUUDbiCGMEUoSHEqCbjpnjbzgAu+Zu6QF/mHTj4ybee0NYfBG0iSmbEeKUhxKqEqKoy1eGuQd8HXrJfhaq8t3vvsR3tgcoxeDGPNbsd4QXEqqTpVQ4W//ug7Ko+xgiQXd8HX1MH1mjZn7aHHZ+7+5lBFh6zUplwj/gBBKtxTUuUSwSB3uuATDlmXXzZy0tYlW0sZqMCKyDL6P9VSOUTwkanbac7o6h1ZX2sH3/5i73/O3PnmsgJ6D5bG0dQkm6A5GnWJYOsFH/Mg0LunPtxVVlnLmMTIZCrs/JXTEM3RKEQQBVozEWyl4IPejZi87eu/G0zv/AjTcwIRRAGIIMrokU8+mVYHPvjWqCnfSHong6CFnYoCjIIog0ooZqEmljTdisDnp3d1DY30uiXuDtsoyqCSJIIoGVbGykzT2m4V4IPeTV52AHpXfLKGkQbWZZo/46wYlVAM9VASIojCcVbkqGLJD76FGwqHT9rGwj8ciz62c++gHkpCBFEYte2sqiG6JTP4tuw7AZea/7cSepTQZoi/FFSCqiiM2ii/fleZghataiI5wQdzYjnrlSX74FL0pVXOTaRd1Eb515cWMCOIOYlUZduyyQY+2JKkdyxnwaIIZLZ1fYuKoTwmSCKIUZjWYhFnCSQV+D7bXMzsnSPonX6UAEGiMEZhGgbqL2h/SceCr7lroXeP+DZBMVQQsJrfTIYrjMK0D9YXQQQxNhlM0jTHg4/lKUnvqk6JaZTk6JVIVgBBiCBcFpMxPJKYU/IdDD440LRVBSxPJQG90w8XojBDICZjOObjBP1l7SbpVPDBfh5+d/vn+cfpCfrDbm41Wx9MxnDMxwm4wuzmTKrfeeDLP73HnRhEMskvjqgW80lyp74TiaCTwAfLges8P39Pa6B3+tHPEIhDnEgEnQE+mM0c3x53uA6+Jujo75vWIIlD2mWm4hxnEUEHgG9dftkjU7cv2WriHvfkAKiEIEQQdzmCCNoafCwrsbj0pqo97skBQVgghkAEcR38mHPbJpuCD3r32uK9Tynf427bfopJMTkE2n+nvh3BJ+nd15bucY+ps20rzLocboQI4lIbKmkv8EHvWD6S9E6GDxu6zFkq4UYe0XDpiElbca+tlLcL+Pz0juUj/GUrHyWBMtKlsGeIIK62iUVmg69lM5lGkfSu2K573Fu2wQkSkgjiZJg0DsftlmttMfgWbigccforjHjHcnckvQI4WRJBO+zUtwx863eVQe/m/60ERiKDQtJ3vH0MxOFAEOfTBXSEVYpZAD44B6tkry8tcOmdVb0u2wWCdAEdYRURVAo+eMZk31cYWQhiwCMESC+4R6s8QBfQEZII0jV0kEpN1IGPBR/o3do9JxjwsVmlkW5b0T1Ad9ApdA0dBAuPLmzgXRXg27LvxCPTdn6wvogPGUO9gdo7sSrb6kzX0EGSCNJlCvQ0F3yskkHvXlmyr+pUDbYpsMdtIkEP0E0QQbqMjqP7EqwtenGzwAd7mLaq4LH3d7v0LnoH2PAuUZghkI6j++hEutIkJU0BH/TuYd8ed5gElpikulutqR6g4+i+z/OP05V0qBltGQy+fHePuxm9ZF2dRGHStDWHmRE0nAgaBj74ASzB3eNuHU5MbJkobAYRNAB8cAKYweMzXXpnYvdbXjVRGAhCBOlouptOT1ylJvDFXdG6/DI4AcwAzdAv7nrcgo7wAF1MR9PddHriRDB+8EHvWJZ5c1mBJ0WDFjjCd66ShniA7qbTIYIAABjEXacnjpLQu9d8P9NTpvY97nGoakgR6A71cKypb2wxISaFOSZxkkMgAHj2oz1wfSARh7Exg2+O7yuMXyfvHnfQQwJkJ0/Vy4Sjc9um/7hHzqAfdrjlwk53/EPnn1/RjfTQdd/nKBOZ3ELgh53bIEwRWZYjVVEhKY7usX8RpmMkEQQY9TGqGwP4oHc8by/xfYUxIzUlxoZsLQ4ygAhAIYEbcAaYxt7Y6+W7z3t31IDJI3/8m/v6PX7rD0YNPueuQT1uv7z7TQO7kK46P5ejTGRyC4HxP+uLMEUoSHEqAZQgMs2TQuW0QqI5W7sjRuUwDSIIMEbGuFNfF/j2n/6ZHryWTLDDHKAAJnDfP51/FkB57b5zwQ04A0xXnJfbu0t2m4y0GPuiSZyCFKcSQAkiqZbKGSwZHZGgUZpGAc6TI0lg8AwAEQQweoxqAXw8UUPvnkqurzDS5XT8iep6BiSCJpgAGcOv6wVQuuXmNHnNhD9UzmDJ6PjuQxfSKE13aZeBGihjQmsWVMlnmCEQIghggA3gia5ENPAtDNjjHr0WR9z1Y44up+OnPTSAAYmgCSbU60+jNE2ARg2UgSYmEwohgjwVjJi8DSIYxbfhwcew+ci0nfOTZY87sCPM4QXo1xu/OJcup+MJi+RYnlADZVDplXvOI/QzCpJQ2HLFElSAKMwoCBEESMApbG1hwMcS3tOzd9XW1lI+bBlnZQK7NpkZjw7uRbCDfjHk2FN/CCKhf+KIHzEQojBqJwcEARJwAlShbg8GH0IvL94HZkNFHZdD/xHOnrqlz1vD+0G2HKG/HAhRGLWTBoLACVABraAuaAY+hkeECNhBQs66ZMDww45wdnGfDs7SX2qL2skEQUAFtACYtE4ez4CPZ5MX5+9um3EmR0o46whh4pmLIOtc2AU6XEIQc8jENI7WpURbBloADJj5KzoDtXeWFjQ0avSc/56zTuSAB2dn3sQpQVanhzHnrQd+hGmM6Jips5TdxIAWAANmfsWawMfy8Ff7yp37hEGvMIHC5Bmc3W9bMp3ABTGNJRPMxFiHmgbANuwv95O/JvBNXX2IqOxQk5ghG3712cRZ2z7JGuVYnogx897Lu2KyUXUqqyc9Pb2wpGTWXzYOe3WxbFSADyQeKKuW1846QoN4nmXqjqkyZ2meiLYs/WEyfYn5idSjrCyqVleWL1qzcfHmPTT67f4TKzYf4ESAb8nm4jbp4oRrByU+/dAgRoKkH/BCOwWTeRZmmRgnhN61Tw6wQ5nVGzbNWLP9YOUpDZh5UrS26W8s2EK+h6ePbYcrIYNcOCVBuuE9Y2/sBQ1yis5m6MkyMU7AFTjEjPoTrBPkbd+9d8qK9d+WVQnY+atL9yz66yGA59m6v9yf6YgT6WioN8+AmuYIlU1UEifgChqQbuHEDgnYQe+mrPzq892HNYY6UpBaaSlLN+7z7DhUkZnmmJgLy+Fxj3kHqHeQOa32ElfgENyCcyx3ArDz07vamjqBvLA6ZaZtyi/yHDp2igfgsAJ2y8S5fbu0geQx72A33azVB4fglou+n4OLrNUkmN5F0iY1Zcv+Ms/h8vpIArbKh9ng3PE/62srrWylzOO3/oBHEBylXisGvO8OHAxD7yKrsuXwSU9tbW1kAbvcwaHXnd8R59pFIbvqwSMIjsJdyhQEdsTZaPQurCqeFB5+HcD2cCUOxa1hrXAzgzyAo266IBenBeUbfgnseMph9o5plNq6+oj0LnLDdgcfJMZFXuTuC3OHLGagcJrZ+GMaZery9QdPVjebRqF53cnW4AN58Dw+yrrNcQWbPIDTLu/dHgc2XRv3hwFPTKOsWC+mUeSkcbyV2xd8OK5b+wyX58Xbsxquw4G4Me4aggoCO0nvFm/dK4Js6OxdUIGWLu0LPiaAnht6bkv6u/ejeQAHts3KgJlFE9JxD9hRiZxGiY/ehW3EpuCDr7x4Zx+mr8Iq7Wbq9AAOzPuX71fVNgAdnUXCikl6F7xKFlY0lkw7go/F8qdu6cPaeSyGuLLhPYAbcWZlTUP421FzGfCMondh27Ed+OAoQy/pfLEzv3gR1sWWZ+JMXEow0a8JsIPeMY0iNkHB7Uj6C+uWVAQ+nfoQHeDIdw3qoVPeFdPpAVx6Tm4W7m1RHtghI+kd88BxT6NQSYvJXuCDncCRW1TaFYjDAzgW90YvCPKgd1OWfmU4vQvbro3AR1x4dHAvOHJYRd3MBD2AY+Xmv7D1ADvo3dtL1yQ+exe2/rCZdgEfEWHA2W2vOj83rJZupiEeuOK83NCZZ2B3ht41NIoJPEMa01GJXcBHRBh3ax8dCrsiCXlg9I29/OWBHZ/5ZvTOnAcLf4tBJ7YAHwF3+NVnExeClHMvDfcATv75Fd2YUgB50LupqzaooXdhDbEefHz4cnOybhrYJax+NsysqqkrKqvYX+zNP3SSxAmXZMamqnXSuLq07Kigd/mHRJBVO9oF2m09+Jj/fHSwredWgNdnm4tfW7z3kWk77/nDluGTtj0+c/fTs3c9P38PiRMuyeTWf87cOXnZAYQpEuhl+5xv2nGw18j3xOwd9C7d4t63uHmGvQt7tD2/Rzv7dI9fk/W7ygDc8He2Aq8P1hd9/feKqlM1HbJSSe0yU4MSmaTikzVr95xAmCIUBIhb9p3wV2jtCcPzsJeXXPofi5o2QVk34Pn9YDH4eM74xT/aa9ijk6atKgA6ry8t+OZQRUZqCjjjSEprqcMQQIxEEWQB4itL9o2YtJUKqdbvdMUn9Zr27NQvuw+b/v7fDmtnZYpQq1iDCM1ZCT6GPZ78e3fJjqCb6mzwwVD32Pu7P88/DnQAEGCKWwnKShRSAxUSmqmcJrhUmRb85bu0+/57wic7tfYZmtVxNshwK8EH27vj8m5BCllyyeMCIfKx93cz1BE9AQ3QMUoTqqJCoEzgpgkaojmjKo9Sz879RwaMef+O3y7XGho1YMfnKYq0FbcsAx/DHmzPDsPeuvyyEZO3ESKBHUAxrxeAIE3Q0MPvbqdR8xpifB39+rL+Y+aJaZScDPvE2SCTm4Mv6KaZl7C9oVdYPOwxAhEK31xWwLAEMsw090zdNMQYRKM0jQJnbhh09od5f+0+fMakNfttRe/CGmcN+Bj2zsnNsvYhl9mQx/68g1AI8sK6xrxMxlcapWkUYJQyqqEVmw9k/HLao3/eqGWnizhrVL2m1WMN+CAh1/W3chmXGRBmQ/gMMA6Z5tsWKqZpFOBBBGVaEG3pNnPdPx0364bxS2pr6jQbx9kgO6wBHzH3mgssAx9862XfG/cZgYLcofgSBRgCUQaV4muawP3YWyv7jZyx6uBJ+8fZIBstAB8Li9f368giY5AqC3V0PgAAEABJREFUai7pZibwIP5qmtPTCsqgEorpEQ6U+dOSr7OHTnnz8z0CdjzPBt5zwrkF4DtV13Dtj6wZ9ghwdDOdbbeuQSUUQz2dikHvWCUbOWmtU+hdWLtUgw+Wk5nmseRRgycM1hvo5rCOiJCpLhvFiL8oGb3Jg0eO/8tzC6F3YpXMOfQurFGqwcejxqAfWvCrLHCj/79wj83f/hv6SxWBfYYJrJL1emDmou3FIs4yYRN424HnqsFHzL383LPUO+r3i/fBNSH46pvW3yLq8eFE1dAikt6JVTIWZx1I70ItIkc1+Hwxty0Nq0xw+W2HK5naUNlofG2hJKp+trnYX3z9rrImekeQTRbYSeuUgg/C17dLG8XPuUQrlhOY0ZAG2/+IqtPWHEZt5p+HvbzkyrGzmuid/VWPUUOl4COmXKr82+DvLC1guI3RLRaLg7+7f/cFq2R22wRlrF+Ugg/Cd36PHGMNiF4bD4/O+lmvdN/P9ExZtUFsNrZlnI3u8JjuKgUfI5DibSzv/+UQj5AxecQqYWDX7CuMyUXvwnpVHfgk4QurhEmZcKathxzw+zbADg9Y+BVGWrckqQNfQ6N2Xjelm5Y/3lRq84k9uhzkbQ/7Mz3cS/akDnx48vud2nBUk3haXLvnBDMXapqLoxVgV1hSEvN73ONoqaJGC5viqCqwSG1D+GoZZgLFIp+rAx9PG907ZkXWxOA7W/aV06LBlRpUHbDz0zuxCcrMtYr0tNTCafeHpo2v3CqgE7dFFTVThl8eWi05t53fWQOXOmpWBz4+D13PytChkjEiK7+1b8wlzs4I/BVGYyyOWEu33JzQ1KNrR62uMWIZHTc6d8wOrZac9llpOkoLEUXg42mDp07zppeFKQH/ibnfFVexWhWQZ/0pA56Is/73uFuvkcUaKAIfVnZpp27YKyipslXMBXbEWeidUe9xx59JkNSBr2t7deDbecguP6UJ7Bj15TSKge9xTwLkYYIi8EH4OrbVSwVQK8G0t7jKTBIfg3bQu6nL14uvMLaCSeMY/OITVQQ+2urYNp2jmrSjsFJNQ5FaYcBrRu/UfBT4iAcpFJoTJBB6GUeR0Er05agDX5cOmfpUMkDq5Kl6q542gB30TrzH3aCf6dHrDkAjIc6JP/kK1/uO4Q9+SXmCEJVwzklQIjMwBd0NvQwU5hwBeeTkdFIHPow63ai5f1lVM7eBCLUDOz+9E+9xV2aw1MdbW/jHexpn/lvdrAdFOn2smj48VQo0PzInUvfJmEBJzim+/MkbNG/tGdnahjfvvJB87jZLHz98+6C+Z8QCzt57+pa6OSObCc96kBouyG0jXtwRIKkIfDx7ZqaHdUKALgadVtcpMipQX5BnOb3rkCPm8PFyUArUM/A8SIzLwLtB59wNSkECgZdBklwG3vWfW9BP/rZNOjlVGy3OGN4osIPevb1U6Xvcw1pxoqI6bL5tM9WBr02GurbUuBvYNdG7zXtEi4rjrGjS2f+TDRBqegPYQe++WPrpjCUri07VOeLFKGo8E1Mr6sBXFddvz8VkjBphkLdj65aps+ZvO1JOi7WFB7vUV7J+z7mbYvKAOvDFpFYiwh3apCRSPEpZYFf0971vvz9n1eZ8Lc3jf+9d8dHjdoCgfOCIor+eW21TG/SIGSKjCHyZaZ6qmnrNEJVbqsSQPghqBNhB7z5csGjRF1vELZAn/pz+72N7QLB9eQmj4Olc1X8PHC5lmik0RdIjVFLklNcFyZeUV4v8soqgY1VNsKQsGCTmv5R3A4+KwEeT5d7wunLL2GTs3hlgh3qC3s1bWnqySgx4XIdNnpTSymog2MlbZkEUzsno/+hH3YdND07DZ4R9+D945Hj3W6YECw+bLl6jmxOwCp/umfDJzlAxyn62YV9YN4x6Y0UY+WHTxRqj71PqL6UOfNUKZ0Byc3T9vKffC5FOQB70bsrMjwS9y0rzx9lI8iLfB0FrojCgOStTa57Sz2qTKtQK/p+enqZ1DBbWKEslQbKsSpMflDpnpUTATnscxVJqkDyXzZFHIxEq4I7R6VhlwLy50ZUH1XdRjzYhazlBIi1cpqenh6V3LRQLuM0QaA0EA3Sw+aki8AH6Y5WKwi4eP+d78X9ZBNhFo3fUrjNhs6YBQYhgz7bq1rV1amcHMUXgS/OkHCmvUWbw+T1yWNCLtTlgRxGx965FeoeczuSLwgf37rWGCOpU0iIxReDDuiKF4OvdJbtNuod5YNrVmUCeoHez5n+bv0eDtfjGLZ1lWxbzQTBcFG65aBJLqANfVW1DpIdzM/x75Q866KR9wE4szsrZOzBHMkMhX51EYReCPk+Igzrw0adHjquLvJefe1aLkRfYQe/m/s/Sxf+zWjgjzXxv4AWVRND3+Vux+UBo+mp7oZaWIqyO739m2qb8otBqyTlcclJL1VWz+e4+bRvzzIXH1G27uLhPh3aZqZEiL7BDL0nvGI1EnOVaWfJFYYggM9Lmzgh6Umpr6m547pPQFDyfF6vtvvm/0GrJWXW4QteclKapAx/W5aMWf1SlwRfk+j75we2BvIP78qdA73bsFrDzjUbBQgquPSnFZSdMj8JYx9Rd2JSgjcz/ha2WFvXVrA58GakpOwu9+rQyRurWS7sGRV5gB71rWiXDRwrirA5TGHolBHXIJpWIOvDhtgNl1SqfOVhnu+78jjX14nv5wA56xyoZ9K60sjraKhmKKk58DHxEkOmYVjUjGBZ8Jvq+oKTKxNpDqr7/2h48ZZPNNMqMeUubVsm4tmEKIoK1DUHfeLChygmqpBR8PHPsPFSRoMYxFWfwG/yDlCl/+lBsgjJ89i4mVXQKQwSPHq89eOAX/3B2ekaaeJdPWN6qszZ7iykFH7Rv3e4Tih3ywC0Xae0zNV9oU9x0Is299/QtNdOHv/mvl4rvkjEKJlKXXcsqBR9OUEz7aDFV09b91zCtVGm4p934U2nVujd+KYv/3zsvK5x2P6OgdvxU8kVh1eDDp1v3l3NUma68sM8Tv7xCKz+lstE426qoQVUU9hfvlpvDKLjxv27r2S5LRGH/DeefqAYfS65rdx1X77dXxw0Z8MPvaXXq9ojHY2Ndw4A+nVA1tOwl/XsWTBk2/1c3iPcuVtSECjgxRzX40jwpG/aXq5xw8ffKhmn/LsAXF3/3V2LiCR+MugahZOQ2hvxj37o5I/PuGCCisPOJoGrwSceqj7y0y5PvjhljtBO2JE98JE7WoB5KomqUBIV98YGfFEy977YfdREQpGAUaXvfsgB8RN7l20otcUu/3l03zhgtHj5s1WcoU1qFYqin0y09u5718Qu3r/vNPzcRQWrQWdJOYhaAj8i79VClJZEXz0OediwYa6PxD9xU1KASiqFeTInnEojglIcGOXQ6xgLw4V8Gv6VbSjixJDHAFCx5Usz8VddZosCZRlHAk1Lw8ROodCYzxrMHb7nIO3dk3v/pJ6Kwo4igNeBjxnfJ10djdLKR4oQt75Knrx/QXVO4yyvYgGPV1/TvihooE3wrxmuYohOJoDXgI/KePFW/Lr8sRicbKU6HLZ84esKon2glXvEUbGTdLdXFg22Jd+KTN62ePAY1WpLWe7+njwgu//UtKtbl9CoVTc4a8KFRu8zUhZuKObE2PTPqZvjWgO4dFA2BMLxj1TRHo6PvucYM268feA7rco4ggpaBD7+z1LZln+qlXtoNSvCtb2aOnfvyULF+UFFj1ioWsGOJpaaehmiORoPUMPZSEsGHru5tZyJoJfgY/GatKzTW6XHXdufggXXrJkwcO1iAD5QQGeOuK6ggVcEsPSkTx91Y9+ULNBR036RLAvo7YwfvePvO63q2ExAE/Sa1FG+1VoIPnW0y+KEJiflbQmHdqufmvnTnNX07Cy7IQAh0uBdroqcpSPESL1Ux2jUuy6Nymoi1pgTlGWJX/v7eBc8MtiERtBh8zLlMWW2XwU92M/hgcFo9eUzBZ08xEAIdQQcZuipqNGZGgJSUCz1yCwHEfMIUpDiVrJ48hgpDxVXm3D6ob9V0223Qshh8PPaWVVRb+9gbCQQ8PDJWAR3v2hfWvfsgSBp98wVASlDDokqNVOIVoyMnpOo6bj1xx0DEWKvwfvk8BSlOJZHqV5zPh+rMBi17TAdaDL709HSY3z2/+8SYBQ9z+hPyxFoCSJo4/m4g1bhuQuM3v/Fuesm7YULhyvGccNn45QvcenXcEMRYq6CIObokWqvcoNWp9ri5X9nUp6aV4AN58iuMB7fufPaPi/UpbBcp4EWiLznaRSd9ejz71uLSI+Xy+3LWQtAa8AG76sryD/0v+myf+bvp63fuP6LPe65U/B7AyROmrNFyMqii+Ojx9pa+SlU1+CTsvlj66Yx5S5u+wshaG57o1Obapz7kr5tM9cBd/+8DrWNWUxOelNKTVUDQqq9sqgaf+ArjwuVhvsLoSSneX/zS5E+b/OL+McEDuHfbnqPNvrPMJx8IVlareHdHiEWKwMeAV/T3vVNmLxBfYUzziB0lIapo7TPz/vD5ph0HQ++4OYl7gICLe3Fy+Kr48B9V/U5908EH7M7QO6ZeQV546325XbIv/fepdn7y9WnpoEOTqvWa1n/kZC36C1sZBTWNKKyMCJoIPmCH6U30Tr7H3WcemRETAjX1//rMexEF3BtxeeDnv5omZsijf/JlzURhVUTQLPCBPOhdbO9xl8Znpc1Z+d07H34hr9xj4h7AmXOW5ov3cemsiyEACEIE9+8z9SVuxoMP2EHv3pYv+uSjhiU6bfaLdcx6+KVPvtoa/mce/FLuiR4P4EacqXXO1iMcKkMUNm9G0EjwAbsz9A47QB7H+FK3tleN+NPBI8fjK+2Wkh7AgVeN/G+tW1t5Gc/RN3YAQYig4W/QMgZ8wA7D5Is+mTpq9jDPjfhSu4xe977hPnzE5zxK4bpew/4g55O5TCjJKGz0O/UNAB/Ik/TO4Pe4+wbO3ve/jRMTclyrLMzj7eXD/yi+HuAbuozxgQ+CBkbhhMAH7ApLSmKnd7pdkeYpPlwqnKi7hCsoPfDTUW9vO3jMmBAkaww4EoUNgWCc4AN20DsV73HPSsOJ1456O8B297QFD+CuL3YcieHxtoX6Qm77RlMgmCARjBl8wA5dJL2jeRMtpBmZstJwJQ4llMgM9xjJA7gIR+EuFf3ii8KJrMt5AFOk3wsItRBhQe/Uv8fdh7+L73vd5X+hneLPwTm4SBHy/K2yLhfXO/V5dvac3T7VX0+UE2AHvftwwSKxOMuo63saiCJv/C1f/O1592tFZUpfrGu8IebUiFtwDhRFxZgXzgTCIFFY76R0Q+PFZ7fznNctmxXXcLU15QE76B2rZNa/xz0rrfSEt/vtr7JG3qSc+8fnARyCW3COVcgTWviisIQgo5rIifK/vvHi3rmevt0j/kAjsKM4cXbGPNu8x50RNyO1/22vzVu2Gd2SJiViCK7AIVpGqknPtrHp5oNgy0TwVN21F/fy/Ns6A74AAAsuSURBVLhPh7C1gzy5x13EWVu9x52g3yV76JOzn33LYTvvw/o5wUycgCu0LtkabkmwLgOLRyeCvlA76IIeHhif/5dSZOvATtK7RV9sETkMNuKPnf7j6M7ZE95bz5MdXMdOmqnTBcMxHyeIdVscoq7lGFqSURgi2KxMfeNDPz23TYYPWDde1Fn+UgqwC6Z3drVKGJOT8cV3Jd3/+TfEHXHZmv5jMoZjvjGrZ+a5jigcukGrsnbskAtpU8zz9e6SfWGPtlzYi96hUIuJD0/7TOLO3b+axkRDi+JJIICZGIvJYk8y5tvfJMYvIFjZtFMffW+7rEe/3l05EeDjz7/9U/cpb820Hb1DMz2pc/acdfuyr5/AeKBH3LkyGJj9k+cxVoRax5kBETx6XNu++60x10rdm8DXLTdnAlneWpnrvCOPRFlpQ5+ee8PD7zDv4Dz9W9IYo2B4GCgGPIxtSd6m9ytqgJn/LQ5N4EPXZ0bdHPRLFWQ6LHXMWrHzSP8hrz/5+wWEJ4cpH0FdHiwwB6MEw/N/6zGCsK2z6xoAGDDzK3kGfGQt++ODYqe/70mYS0cmaFDn7N/N35w96LmXJn/qaAiiPCZ0v/FlzBFxFtMc2SU+pesatLoGATDflTw0Ax/Bt2DBf4gX4SAq7zv0SGDqkJk3dU325Xn0H73oLDsY7VA7+5Jn8mas0zpkWrluYYjjGM68tTtmjAFggfU1Ax83iMcFHz8h5sqrrX5TO9okknjIysnQOrUREBz0HJEL2pRIfWrKouTDv57d/ae/FrDr1lbADkPUtG1SKwApwhv3g8GHAuDPu+Tpu67qI97/5fQhkJ4Dgh0yiVzQJjg7D4z1GGmzVFVTh2Koh5LvfPotnxkBO5spGbM6DHglXoAEnABVaPEw4EOI2efZvx2+fOroTh2yxY81Ugu5zk1AkEDcORvOzgNj2k+eY3T5yh7fjkMNlGECZegz81BPcDtURWHnehvNAUz5KVb8gBBAAk7khabw4JNy1w885+iCJyeOu1H8Xg+Dp8x19BHOzgNjVhqjy1Uj/pRyVR4dv3Dtdww8uswySAhKxzhH0ymXjkcNlBELFe0zBdsxqAkrqwEqpVXApnFZHhCKokk08Mlio++5xrv2hdE3XyDexen0KCxN4sjoAgpzMuj4IY//meeSH9/3Ohx/xeYDIIP7hqeDR46D8mffWvy9Ia9C6Rjn3lm+QzxMoAbKOH2ok/4CHkWVQMW7YQKwkXlRji2Dj8IMmxPH371j0ePXyNdkM6iSmxyJjmfI6Zy97Ug5HP+G0VOY2kgZPGHIuHfBIuPTph0HgaP+oRFCiTBQI55SnEqY90657oVeN70CyifM+qvYddc5W8wVMwwnB+ZAApDwvfockAAVAENei0kX+GQtrMetnjxmwdsjiOXJQASlVf4jOJBAZChqaFy4+SBYZHy69P53GKiyr30BRDI68kzA0ioRk8QTNIkTEmDlFgJpgydA4IAa8ZTiVMK8t4inEnA0Aeb8jSbBCbCrqAESAGP15DGARL9NMYBPVnr7oL7EciK6+OFQorvMTbIjQAQiAIVBESyCm+x0raGR0ZFngjl/PUDEJF7zBE3ihEvAyq1thScQEwSOIhSkOJVQVZL5x28OACitmvDA1UACYPizdZ7EDD5ZLxG9cOV4ortWVMnMtcxM5iNwlAkkyQSq/EnmyKMUS2Zf+Gw7Te+AQeCKme+e3kOc4KN6ZquJ7sT4AfKHyxh+yXVT0nuAjvb9fNzG2Y9MHH83MIjb4vjBJ5skxn8z0/fDZXziK0z74TLZmHu03AO+Lp778lA6/ZL+PRNUJ1HwyebvHDywblkesT+ZiaA0tdUeibMlXrq4btVzdLchbjAGfKiSqmnEfhgAyymthQhidmtIxNmiyrsuO4fOpYvpaKOMNgx8UiEYAMspsAGXCEqHOP4Ivevang6lW+lcY80xGHxSOdgAnABmoNXUiw1afHTkDffoIA8wjVJdRyfSlXSoGYqbAj6pKMzAuyIvb9gVggjCGGSue7S/B+isEm/evZfRfXSiefqaCD6UZpnlxUduLfjsqdsH9hQbtBQNgbTsprg84IMdnUWX0XF0X1y16C1kLvikFj27nrXg9yPWTR/VqV0b7Vi1zHSPtvNA+alOHbLpJjqLLlOgngrwSTOuvLDP0QVPwiEEC4RPyFz3aAcP0B0VNSyZ0kF0kzKN1IFPmgSH8K5+7ok7BooozCAvc92jVR6gC0q8dAedwpKpYi1Ugw/zYBKvjhsCq7i+X1cXgjjEmgT/LvHSBTsWjKU76BT1algAPmkkrGL5xNEwDHiG2KAlc92jAg8Au9N73OkCFkgVtBm2CcvAJ7WBYcAzYBviQQTmIXPdo9EeOFMfTj5xCoc3trTH/UwR084sBp+0C7bhXfsCzMONwtIhphx99G70zRfgahxuShMxVmoL8KEznAPmAf+AhQgIEhrIdZMhHsCZco/7grETx9+Nqw2pNfFK7AI+aQn8AxayfOpozd2gJT2S+NFH7+LY4554yy3WYC/wSXWvH3gOjGTi2MFasVe8O0bmusdYPQC9K6qU9C6OPe6xthaHvB3BJ82Al3g3vQRHcTdoSYfEcITeya8w4sB7romhoFpR+4IPP8BO4Cg7kvIrm5hnRoLeHase0L3DRt8edxxoRiNG1Wkl+HTaABFcPXnM3FfvdolgNI8BuwrxNQYWMM3bBBVNgdjvOQB80ijW5SCCEx64WmzQgs3IXPcoPYBD5FcYjdvjLis29egY8EkvPDPq5sKV492d+tIb4siAV1SJQ3ALzhE5zvnvMPDh2G65ObN/OxxOA7MR6yJ4n9xWmDAcemfaHncFHnUe+KRTLunfE2YDvxFvCIDryNzWc8TkhkbMxwm4wqF2OxV80t0QQe9n4wURLPG2ihcnYDbTKCXevGFXYDjmk+Hc5Gzw4XdmE+A6BcmxUx97oiTibIlX2R73KIoYdcvx4JOO6Hl6p/6Aru0FEZS5yXQ8Vt2pXZt100cp2+OuwHlJAj7pqSsv7PONfHcHUw8kmev0I4ZU10188qajC57EQKdbE6h/UoFPGgYT8q7Iy7v3MrE7BoYkc514RHm5x31FHouNTrQgus5JCD4Mhgi+GPiVTXqRXAclH727vl9XuOyr44ZgjoN0169qcoJP2u8ngg7bqe/bBLV86ujlE0djgrQlKY/JDD7ZYfAk2NLEcTeKb4rAn2SuPY+oV26XPe4KPKQDfAq0ML8JOJP3y+ftu1MfYlDiHX3zBSiJqub7wxYttBbw4WyYE/zJdjv1ffTumr6dUWyinfa44zGzUysCn3Rlv95d4VIwKrFBC3ZF38sb6o80zSqZJ8Wee9wV+KPVgU/6tGmnPkSwtMqanfrQu9KqiWMHNy7Ls+ced+koU4+tFHzSp7Ar8Vs5in9cCXon97hv0PUzPVLVpDy2avDRoxBBmJainfrE2WPVgt4tepxGaRoFWnNq7eCTfQ8RXO3fqQ8RlLkRj3HdqKih2NyXh66O8Wd6KJWsyQXfmZ5lXQ4GJmYESwz9yib0rqhywgNX1614libOtNfqz1zwBUMAIlho1I8r+eid2OO++plnRt2cGtxUa792wRcGAd1yc+BkCe3U99G7Ab6vMM7+7XAqDNNMq89ywRcRApf4d+p7UsQeQYaxiLIBNxDzvfoXevfNzLFUEnDPPW3mARd8zdwRegFLgwiCpOv7dRUQBFgVNWJqEJD5E6yOTG75HmYRbnTpXagrQ3Jc8IW4JFwGEGRdxLv2hXXvPsjMcN69l42+of9dl51D4oTLuS/+jFsIrJ48BuFwdSRzXny2/S8AAAD//8xCVQsAAAAGSURBVAMA6CefVux6MMgAAAAASUVORK5CYII=;" parent="1" vertex="1">
          <mxGeometry x="17.08" y="980" width="80.17" height="90" as="geometry" />
        </mxCell>
        <mxCell id="ixZkb0eXv8Ct4fg5er1q-89" value="&lt;h1 style=&quot;margin-top: 0px;&quot;&gt;&lt;span style=&quot;background-color: transparent; color: light-dark(rgb(0, 0, 0), rgb(255, 255, 255));&quot;&gt;&lt;font style=&quot;font-size: 26px;&quot;&gt;Qiskit-AER 0.17.1 &lt;a href=&quot;https://github.com/Qiskit/qiskit-aer/tree/4fc67653735bb13c1ee9e97f4824e4647238cfe4&quot;&gt;#&lt;/a&gt;&lt;/font&gt;&lt;/span&gt;&lt;span style=&quot;background-color: transparent;&quot;&gt;&lt;span style=&quot;font-size: 26px;&quot;&gt;&lt;font style=&quot;color: rgb(0, 0, 0);&quot;&gt;&lt;a href=&quot;https://github.com/Qiskit/qiskit-aer/tree/4fc67653735bb13c1ee9e97f4824e4647238cfe4&quot;&gt;4fc67653&lt;/a&gt;&lt;/font&gt;&lt;/span&gt;&lt;font style=&quot;color: rgb(0, 0, 0);&quot; face=&quot;monospace&quot;&gt;&lt;span style=&quot;font-size: 0px; font-weight: normal; text-wrap-mode: nowrap;&quot;&gt;%3CmxGraphModel%3E%3Croot%3E%3CmxCell%20id%3D%220%22%2F%3E%3CmxCell%20id%3D%221%22%20parent%3D%220%22%2F%3E%3CmxCell%20id%3D%222%22%20value%3D%22src%2Fframework%2Frng.hpp%22%20style%3D%22text%3Bhtml%3D1%3Balign%3Dcenter%3BverticalAlign%3Dmiddle%3BwhiteSpace%3Dwrap%3Brounded%3D0%3BfillColor%3D%23f8cecc%3BstrokeColor%3D%23b85450%3B%22%20vertex%3D%221%22%20parent%3D%221%22%3E%3CmxGeometry%20x%3D%22532.25%22%20y%3D%222035%22%20width%3D%22220%22%20height%3D%2230%22%20as%3D%22geometry%22%2F%3E%3C%2FmxCell%3E%3C%2Froot%3E%3C%2FmxGraphModel%3E&lt;/span&gt;&lt;/font&gt;&lt;/span&gt;&lt;span style=&quot;background-color: transparent; color: light-dark(rgb(0, 0, 0), rgb(255, 255, 255)); text-wrap-mode: nowrap; font-size: 0px; font-weight: 400;&quot;&gt;&lt;font style=&quot;color: rgb(0, 0, 0);&quot; face=&quot;monospace&quot;&gt;6971bd2&lt;/font&gt;&lt;/span&gt;&lt;span style=&quot;background-color: transparent; text-wrap-mode: nowrap; color: rgba(0, 0, 0, 0); font-family: monospace; font-size: 0px; font-weight: normal;&quot;&gt;%3CmxGraphModel%3E%3Croot%3E%3CmxCell%20id%3D%220%22%2F%3E%3CmxCell%20id%3D%221%22%20parent%3D%220%22%2F%3E%3CmxCell%20id%3D%222%22%20value%3D%22src%2Fframework%2Frng.hpp%22%20style%3D%22text%3Bhtml%3D1%3Balign%3Dcenter%3BverticalAlign%3Dmiddle%3BwhiteSpace%3Dwrap%3Brounded%3D0%3BfillColor%3D%23f8cecc%3BstrokeColor%3D%23b85450%3B%22%20vertex%3D%221%22%20parent%3D%221%22%3E%3CmxGeometry%20x%3D%22532.25%22%20y%3D%222035%22%20width%3D%22220%22%20height%3D%2230%22%20as%3D%22geometry%22%2F%3E%3C%2FmxCell%3E%3C%2Froot%3E%3C%2FmxGraphModel%3E&lt;/span&gt;&lt;/h1&gt;&lt;h1 style=&quot;margin-top: 0px;&quot;&gt;&lt;span style=&quot;font-weight: 400;&quot;&gt;&lt;font style=&quot;font-size: 18px;&quot;&gt;Random count shot flow for circuits with no parameters. The idea with this chart, is to understand how the framework handles the random numbers during its execution.&lt;/font&gt;&lt;/span&gt;&lt;/h1&gt;&lt;div&gt;&lt;font style=&quot;&quot;&gt;&lt;span style=&quot;font-size: 18px;&quot;&gt;&lt;a href=&quot;https://github.com/Dpbm/qiskit-aer/tree/test&quot;&gt;https://github.com/Dpbm/qiskit-aer/tree/test&lt;/a&gt;&lt;/span&gt;&lt;/font&gt;&lt;/div&gt;" style="text;html=1;whiteSpace=wrap;overflow=hidden;rounded=0;" vertex="1" parent="1">
          <mxGeometry x="70" y="-260" width="690" height="160" as="geometry" />
        </mxCell>
      </root>
    </mxGraphModel>
  </diagram>
</mxfile>
